<svg width="96" height="96" xmlns="http://www.w3.org/2000/svg" xmlns:xlink="http://www.w3.org/1999/xlink" xml:space="preserve" overflow="hidden"><g transform="translate(-621 -281)"><path d="M652.184 332.328C648.068 333.716 644.212 335.777 640.771 338.428 638.435 340.253 637.049 343.036 637 346L637 363.57 637.89 364.164C639.968 365.549 643.559 366.637 648 367.434L648 361 667 361 667 369.047C667.758 369.058 668.517 369.064 669.277 369.065 669.852 369.065 670.426 369.058 671 369.052L671 361 690 361 690 367.506C694.61 366.69 698.256 365.555 700.2 364.1L701 363.5 701 345.958C700.947 343.022 699.576 340.266 697.267 338.452 693.829 335.799 689.974 333.735 685.861 332.343L679.626 329.843C679.249 329.691 679.002 329.326 679 328.92L679 326.472C682.791 323.442 684.999 318.853 685 314L685 307 686 307C687.105 307 688 306.105 688 305 688 303.895 687.105 303 686 303L685 303C684.652 297.478 681.475 292.527 676.6 289.91L675 296.24C674.887 296.697 674.471 297.014 674 297L673.76 297C673.219 296.887 672.873 296.357 672.986 295.816 672.986 295.816 672.986 295.816 672.986 295.816 672.986 295.797 672.995 295.779 673 295.76L674.9 288.27C674.567 286.941 673.376 286.007 672.006 286L666.006 286C664.634 286.004 663.44 286.939 663.106 288.27L665.006 295.76C665.151 296.292 664.838 296.841 664.306 296.987L664.246 297 664.006 297C663.535 297.014 663.119 296.697 663.006 296.24L661.456 289.91C656.581 292.527 653.404 297.478 653.056 303L652.006 303C650.901 303 650.006 303.895 650.006 305 650.006 306.105 650.901 307 652.006 307L653.006 307 653.006 314C653.007 318.849 655.212 323.435 658.999 326.465L658.999 328.92C659.001 329.324 658.758 329.689 658.384 329.843ZM657 314 657 307 681 307 681 314C681 320.627 675.627 326 669 326 662.373 326 657 320.627 657 314ZM667 357 648.318 357 651.456 336.977 659.893 333.546C659.953 333.521 660.006 333.487 660.065 333.46L667.005 350ZM669 334C666.312 334.026 663.636 333.642 661.064 332.859 662.285 331.917 663 330.462 663 328.92L663 328.82C666.847 330.392 671.158 330.392 675.005 328.82L675.005 328.92C675.003 330.469 675.725 331.93 676.956 332.871 674.376 333.648 671.694 334.029 669 334ZM671 357 671 350 677.938 333.465C677.997 333.492 678.051 333.527 678.112 333.552L686.612 336.952 689.7 357Z" fill="#7F7F7F"/></g></svg>