<svg width="224" height="56" xmlns="http://www.w3.org/2000/svg" xmlns:xlink="http://www.w3.org/1999/xlink" xml:space="preserve" overflow="hidden"><g transform="translate(-831 -225)"><path d="M885.173 246.842 876.06 231.121 851.127 231.121 843.717 243.938" stroke="#C03425" stroke-width="3.00402" stroke-miterlimit="10" fill="none"/><path d="M843.817 261.561 851.127 274.279 876.06 274.279 884.772 259.258" stroke="#C03425" stroke-width="3.00402" stroke-miterlimit="10" fill="none"/><path d="M921.321 242.536C922.923 243.938 923.724 245.941 923.724 248.444 923.724 251.148 922.923 253.25 921.321 254.752 919.719 256.254 917.416 256.955 914.512 256.955L909.906 256.955 909.906 263.564 904.699 263.564 904.699 240.433 914.512 240.433C917.416 240.433 919.719 241.134 921.321 242.536ZM917.616 251.548C918.417 250.847 918.818 249.846 918.818 248.544 918.818 247.242 918.417 246.341 917.616 245.64 916.815 245.039 915.713 244.639 914.211 244.639L909.906 244.639 909.906 252.449 914.211 252.449C915.713 252.549 916.815 252.249 917.616 251.548Z" fill="#C03425"/><path d="M941.248 263.564 937.543 256.955 937.142 256.955 932.336 256.955 932.336 263.564 927.129 263.564 927.129 240.433 937.142 240.433C940.146 240.433 942.449 241.134 944.152 242.536 945.854 243.938 946.655 245.941 946.655 248.444 946.655 250.246 946.254 251.748 945.553 253.05 944.852 254.352 943.751 255.253 942.349 255.954L947.256 263.564 941.248 263.564ZM932.236 252.549 937.042 252.549C938.544 252.549 939.646 252.249 940.346 251.548 941.148 250.847 941.548 249.846 941.548 248.544 941.548 247.242 941.148 246.341 940.346 245.64 939.545 245.039 938.444 244.639 937.042 244.639L932.236 244.639 932.236 252.549Z" fill="#C03425"/><path d="M950.961 240.433 968.584 240.433 968.584 244.739 956.168 244.739 956.168 249.746 967.283 249.746 967.283 254.051 956.168 254.051 956.168 259.158 968.885 259.158 968.885 263.464 950.861 263.464 950.861 240.433Z" fill="#C03425"/><path d="M973.09 240.433 978.898 240.433 986.108 254.652 993.217 240.433 999.025 240.433 999.025 263.564 994.319 263.564 994.319 247.943 987.71 261.261 984.305 261.261 977.696 247.943 977.696 263.564 972.99 263.564 972.99 240.433Z" fill="#C03425"/><path d="M1004.13 240.433 1009.34 240.433 1009.34 263.564 1004.13 263.564 1004.13 240.433Z" fill="#C03425"/><path d="M1025.96 245.139C1024.66 244.739 1023.46 244.539 1022.56 244.539 1021.66 244.539 1020.95 244.739 1020.45 245.039 1019.95 245.34 1019.65 245.84 1019.65 246.541 1019.65 247.342 1020.05 247.943 1020.75 248.444 1021.56 248.844 1022.66 249.345 1024.26 249.746 1025.86 250.246 1027.16 250.647 1028.16 251.148 1029.17 251.648 1030.07 252.349 1030.77 253.25 1031.47 254.152 1031.87 255.353 1031.87 256.955 1031.87 258.457 1031.47 259.659 1030.67 260.76 1029.87 261.862 1028.76 262.663 1027.46 263.164 1026.16 263.664 1024.56 263.965 1022.76 263.965 1020.85 263.965 1019.05 263.664 1017.25 262.963 1015.45 262.262 1013.84 261.361 1012.54 260.26L1014.65 255.954C1015.85 257.055 1017.15 257.857 1018.65 258.457 1020.15 259.058 1021.56 259.459 1022.86 259.459 1023.96 259.459 1024.76 259.258 1025.36 258.858 1025.96 258.457 1026.26 257.857 1026.26 257.156 1026.26 256.555 1026.06 256.054 1025.66 255.654 1025.26 255.253 1024.76 254.953 1024.06 254.752 1023.36 254.552 1022.56 254.252 1021.46 253.951 1019.85 253.551 1018.55 253.05 1017.55 252.65 1016.55 252.249 1015.65 251.548 1014.95 250.647 1014.25 249.746 1013.84 248.544 1013.84 247.042 1013.84 245.64 1014.25 244.439 1014.95 243.437 1015.65 242.436 1016.75 241.635 1018.05 241.034 1019.35 240.433 1020.95 240.233 1022.76 240.233 1024.36 240.233 1025.86 240.433 1027.46 240.934 1029.07 241.435 1030.37 242.035 1031.57 242.736L1029.57 247.042C1028.46 246.141 1027.26 245.54 1025.96 245.139Z" fill="#C03425"/><path d="M1035.47 240.433 1053.1 240.433 1053.1 244.739 1040.68 244.739 1040.68 249.746 1051.8 249.746 1051.8 254.051 1040.68 254.051 1040.68 259.158 1053.4 259.158 1053.4 263.464 1035.37 263.464 1035.37 240.433Z" fill="#C03425"/><path d="M855.433 274.579C855.433 277.178 853.326 279.285 850.726 279.285 848.127 279.285 846.02 277.178 846.02 274.579 846.02 271.98 848.127 269.873 850.726 269.873 853.326 269.873 855.433 271.98 855.433 274.579Z" stroke="#C03425" stroke-width="3.00402" stroke-miterlimit="10" fill="#FFFFFF"/><path d="M880.466 274.579C880.466 277.178 878.359 279.285 875.76 279.285 873.161 279.285 871.054 277.178 871.054 274.579 871.054 271.98 873.161 269.873 875.76 269.873 878.359 269.873 880.466 271.98 880.466 274.579Z" stroke="#C03425" stroke-width="3.00402" stroke-miterlimit="10" fill="#FFFFFF"/><path d="M880.466 231.421C880.466 234.02 878.359 236.127 875.76 236.127 873.161 236.127 871.054 234.02 871.054 231.421 871.054 228.822 873.161 226.715 875.76 226.715 878.359 226.715 880.466 228.822 880.466 231.421Z" stroke="#C03425" stroke-width="3.00402" stroke-miterlimit="10" fill="#FFFFFF"/><path d="M855.433 231.421C855.433 234.02 853.326 236.127 850.726 236.127 848.127 236.127 846.02 234.02 846.02 231.421 846.02 228.822 848.127 226.715 850.726 226.715 853.326 226.715 855.433 228.822 855.433 231.421Z" stroke="#C03425" stroke-width="3.00402" stroke-miterlimit="10" fill="#FFFFFF"/><path d="M886.775 255.553 891.781 260.56 893.484 258.658 888.577 253.751 886.775 253.751Z" fill="#068172"/><path d="M885.273 255.553 880.366 260.56 878.564 258.658 883.57 253.751 885.273 253.751Z" fill="#068172"/><path d="M885.273 250.447 880.366 245.54 878.564 247.342 883.57 252.249 885.273 252.249Z" fill="#068172"/><path d="M886.775 250.447 891.781 245.54 893.484 247.342 888.577 252.249 886.775 252.249Z" fill="#068172"/><path d="M846.921 248.945C844.818 245.24 840.112 244.038 836.407 246.141 836.407 246.141 836.407 246.141 836.407 246.141 834.505 247.242 833.103 249.145 832.702 251.348L838.109 251.348 838.109 249.145 841.314 250.947 844.518 252.75 841.314 254.552 838.109 256.354 838.109 254.051 832.702 254.051C832.903 254.852 833.203 255.654 833.604 256.455 835.706 260.16 840.413 261.361 844.118 259.258 844.118 259.258 844.118 259.258 844.118 259.258 847.722 257.256 849.024 252.85 847.122 249.245 847.021 249.145 847.021 249.045 846.921 248.945" fill="#0096DE" fill-rule="evenodd"/></g></svg>