<svg width="96" height="96" xmlns="http://www.w3.org/2000/svg" xmlns:xlink="http://www.w3.org/1999/xlink" xml:space="preserve" overflow="hidden"><g transform="translate(-169 -281)"><path d="M233 311C233 319.837 225.837 327 217 327 208.163 327 201 319.837 201 311 201 302.163 208.163 295 217 295 225.837 295 233 302.163 233 311Z" fill="#7F7F7F"/><path d="M249 363 249 347C249 344.6 247.8 342.2 245.8 340.6 241.4 337 235.8 334.6 230.2 333 226.2 331.8 221.8 331 217 331 212.6 331 208.2 331.8 203.8 333 198.2 334.6 192.6 337.4 188.2 340.6 186.2 342.2 185 344.6 185 347L185 363 249 363Z" fill="#7F7F7F"/></g></svg>