<svg width="96" height="96" xmlns="http://www.w3.org/2000/svg" xmlns:xlink="http://www.w3.org/1999/xlink" xml:space="preserve" overflow="hidden"><g transform="translate(-169 -281)"><path d="M213.9 353.4C213.4 353.4 212.8 353.3 212.4 352.9 211.6 352.2 211.5 350.9 212.2 350.1L216.1 345.6C216.8 344.8 218.1 344.7 218.9 345.4 219.7 346.1 219.8 347.4 219.1 348.2L215.2 352.7C214.9 353.1 214.4 353.3 213.9 353.4Z" fill="#7F7F7F"/><path d="M207.8 351.1C207.1 351.2 206.5 351 205.9 350.5 204.9 349.6 204.8 348 205.7 347L210.3 341.7C211.2 340.7 212.8 340.6 213.8 341.5 214.8 342.4 214.9 344 214 345L209.4 350.3C209 350.8 208.4 351.1 207.8 351.1Z" fill="#7F7F7F"/><path d="M201.5 347.4C200.7 347.5 199.9 347.2 199.3 346.7 198.1 345.6 197.9 343.7 199 342.5L203.6 337.2C204.7 336 206.6 335.8 207.8 336.9 209 338 209.2 339.9 208.1 341.1L203.5 346.4C203 347 202.2 347.4 201.5 347.4Z" fill="#7F7F7F"/><path d="M194.2 343.7C193.4 343.8 192.6 343.5 192 343 190.8 341.9 190.6 340 191.7 338.8L197 332.8C198.1 331.6 200 331.4 201.2 332.5 202.4 333.6 202.6 335.5 201.5 336.7L196.2 342.7C195.6 343.3 194.9 343.6 194.2 343.7Z" fill="#7F7F7F"/><path d="M173.6 321.7 181.3 326.4C182.2 327 183.5 326.7 184 325.7L193.3 310.3C193.9 309.4 193.6 308.1 192.6 307.6L185 302.9 173.6 321.7Z" fill="#7F7F7F"/><path d="M238.4 334.8 222.3 321 221.2 320 214.3 327.9C213.3 329.1 211.9 329.8 210.3 329.9 210.1 329.9 209.9 329.9 209.8 329.9 208.3 329.9 206.9 329.4 205.9 328.4 203.4 326.2 203.2 322.4 205.3 319.9L211.2 313.1C206.6 312.5 200.7 314.9 194.6 311.9L185.9 326.3 192.7 334.2 195.3 331.2C196.2 330.1 197.6 329.5 199.1 329.5L199.1 329.5C200.3 329.5 201.5 329.9 202.4 330.7 203.5 331.6 204 332.9 204.1 334.3 204.6 334.1 205.2 334 205.8 334 207 334 208.2 334.4 209.1 335.2 210.2 336.2 210.8 337.5 210.8 338.9 211.2 338.8 211.7 338.7 212.1 338.7L212.1 338.7C213.2 338.7 214.2 339.1 215.1 339.8 216 340.6 216.5 341.7 216.6 342.9 216.9 342.8 217.3 342.7 217.7 342.7L217.7 342.7C218.7 342.7 219.6 343 220.3 343.7 221.1 344.4 221.6 345.4 221.7 346.4 221.8 347.5 221.4 348.5 220.7 349.3L217.3 353.2 218.7 354.3C219.4 354.7 220.2 355 221.1 354.9 223.3 354.7 224.9 352.8 224.7 350.6 224.7 350.6 224.7 350.5 224.7 350.5 225 350.6 225.4 350.6 225.7 350.6 227.9 350.4 229.5 348.5 229.3 346.3 229.3 346.3 229.3 346.2 229.3 346.2 229.6 346.3 230 346.3 230.3 346.3 232.5 346.1 234.1 344.2 233.9 342 233.9 341.8 233.8 341.6 233.8 341.4 234.4 341.7 235.1 341.9 235.9 341.8 238.1 341.6 239.7 339.7 239.5 337.5 239.6 336.4 239.1 335.5 238.4 334.8Z" fill="#7F7F7F"/><path d="M260.4 321.7 252.7 326.4C251.8 327 250.5 326.7 250 325.7L240.7 310.3C240.1 309.4 240.4 308.1 241.4 307.6L249.1 302.9 260.4 321.7Z" fill="#7F7F7F"/><path d="M239.5 312.3C231.2 315.3 225.2 312.4 218.5 311.1 218.4 311.1 218 311 218 311 216.8 310.9 215.5 311.3 214.6 312.3L206.7 321.3C205.2 323 205.4 325.5 207.1 326.9 208 327.6 209 328 210.1 327.9 211.1 327.8 212.1 327.4 212.8 326.5 212.8 326.5 221 317.1 221 317.1L239.7 333.2 239.7 333.2 239.7 333.2C240.2 333.7 240.4 333.9 240.8 334.5L248 326.2 239.5 312.3Z" fill="#7F7F7F"/></g></svg>