<svg width="96" height="96" xmlns="http://www.w3.org/2000/svg" xmlns:xlink="http://www.w3.org/1999/xlink" xml:space="preserve" overflow="hidden"><g transform="translate(-678 -281)"><path d="M708.5 317.79C701.596 317.79 696 323.386 696 330.29 696 337.194 701.596 342.79 708.5 342.79 715.404 342.79 721 337.194 721 330.29 721 323.386 715.404 317.79 708.5 317.79ZM708.5 322.63C710.438 322.625 712.015 324.191 712.02 326.13 712.026 328.069 710.458 329.644 708.52 329.65 706.581 329.655 705.005 328.089 705 326.15 705 326.147 705 326.143 705 326.14 705 324.205 706.565 322.635 708.5 322.63ZM715.5 336.7 701.5 336.7 701.5 334C701.513 333.452 701.77 332.939 702.2 332.6 703.24 331.88 704.392 331.34 705.61 331 706.55 330.73 707.522 330.586 708.5 330.57 709.479 330.573 710.453 330.718 711.39 331 712.63 331.322 713.793 331.89 714.81 332.67 715.24 333.009 715.497 333.522 715.51 334.07Z" fill="#7F7F7F"/><path d="M734.9 314.52 722.66 321.86C723.349 323.018 723.9 324.253 724.3 325.54L736.91 318C736.066 316.949 735.389 315.776 734.9 314.52Z" fill="#7F7F7F"/><path d="M756 309.79C756 314.761 751.971 318.79 747 318.79 742.029 318.79 738 314.761 738 309.79 738 304.819 742.029 300.79 747 300.79 751.971 300.79 756 304.819 756 309.79Z" fill="#7F7F7F"/><path d="M736.91 342.6 724.3 335C723.9 336.287 723.349 337.522 722.66 338.68L734.9 346.06C735.391 344.812 736.069 343.645 736.91 342.6Z" fill="#7F7F7F"/><path d="M756 350.79C756 355.761 751.971 359.79 747 359.79 742.029 359.79 738 355.761 738 350.79 738 345.819 742.029 341.79 747 341.79 751.971 341.79 756 345.819 756 350.79Z" fill="#7F7F7F"/></g></svg>