<svg width="96" height="96" xmlns="http://www.w3.org/2000/svg" xmlns:xlink="http://www.w3.org/1999/xlink" xml:space="preserve" overflow="hidden"><g transform="translate(-932 -281)"><path d="M991.539 350 991.539 336.371 977.789 323.31 964.039 336.372 964.039 350 975.039 350 975.039 338.542 980.539 338.542 980.539 350 991.539 350Z" fill="#7F7F7F"/><path d="M1025.45 297.834 1022.17 294.554C1021.46 293.827 1020.29 293.814 1019.56 294.524 1019.55 294.534 1019.54 294.544 1019.53 294.554L1016.25 297.837 1022.12 303.7 1025.4 300.421C1026.13 299.783 1026.2 298.677 1025.56 297.951 1025.52 297.91 1025.49 297.871 1025.45 297.834Z" fill="#7F7F7F"/><path d="M1020.75 305.163 1014.84 299.251 991.91 322.223 989.91 328.257 977.832 316.727 977.832 316.727 959.042 334.6 961.123 336.378 977.831 320.509 977.831 320.509 988.955 331.045 989.725 330.761 997.825 328.09ZM996.849 326.473 992.923 327.766 992.23 327.074 993.523 323.147C994.461 322.26 995.935 322.28 996.849 323.193 997.756 324.072 997.778 325.52 996.899 326.427 996.884 326.443 996.869 326.458 996.853 326.473Z" fill="#7F7F7F"/><path d="M1001 357 944 357C942.895 357 942 356.105 942 355 942 353.895 942.895 353 944 353L954 353 954 311 998.874 311 1004.86 305 954 305 954 295 944 295C939.584 295.005 936.005 298.584 936 303L936 355C936.005 359.416 939.584 362.995 944 363L1007 363 1007 323.155 1001 329.155ZM942 303C942 301.895 942.895 301 944 301L948 301 948 347 944 347C943.325 347 942.653 347.085 942 347.253Z" fill="#7F7F7F"/></g></svg>