<?xml version="1.0" standalone="no"?>
<!DOCTYPE svg PUBLIC "-//W3C//DTD SVG 20010904//EN"
 "http://www.w3.org/TR/2001/REC-SVG-20010904/DTD/svg10.dtd">
<svg version="1.0" xmlns="http://www.w3.org/2000/svg"
 width="2000.000000pt" height="2000.000000pt" viewBox="0 0 2000.000000 2000.000000"
 preserveAspectRatio="xMidYMid meet">
<metadata>
Created by potrace 1.14, written by Peter Selinger 2001-2017
</metadata>
<g transform="translate(0.000000,2000.000000) scale(0.100000,-0.100000)"
fill="#000000" stroke="none">
<path d="M10253 18421 c-30 -27 -58 -95 -47 -113 3 -4 3 -8 0 -8 -3 0 -23 23
-45 50 l-40 51 -24 -48 c-13 -26 -30 -66 -37 -88 -21 -68 -40 -78 -91 -51 -46
24 -78 27 -112 12 -18 -8 -48 -17 -67 -19 -48 -6 -88 -23 -120 -51 -44 -37
-85 -50 -119 -38 -32 11 -95 0 -106 -19 -4 -5 -28 -20 -54 -33 -35 -18 -51
-22 -65 -14 -14 8 -21 5 -32 -11 -12 -16 -26 -21 -59 -21 -48 0 -54 -7 -56
-70 0 -19 -1 -53 -2 -75 -1 -22 2 -49 6 -61 11 -32 -31 -48 -77 -29 -20 8 -42
15 -51 15 -24 0 -35 -44 -39 -149 -2 -53 -9 -109 -16 -126 -7 -16 -13 -33 -12
-37 4 -16 -15 -7 -38 17 -20 21 -30 25 -59 20 -43 -7 -44 -8 -44 -48 0 -37
-27 -72 -65 -82 -15 -4 -30 -12 -34 -18 -13 -21 -8 -78 9 -108 16 -27 16 -29
-2 -43 -11 -8 -23 -12 -28 -9 -4 3 -35 6 -68 8 l-61 3 -29 -62 c-31 -66 -42
-83 -76 -124 -21 -25 -40 -85 -35 -106 2 -4 -8 -18 -22 -31 -14 -13 -21 -27
-17 -34 5 -7 -6 -27 -26 -47 -19 -20 -43 -54 -54 -76 -11 -22 -36 -54 -56 -71
-30 -27 -34 -35 -30 -64 3 -18 15 -42 26 -55 12 -12 21 -27 21 -33 0 -6 23
-35 51 -64 32 -33 48 -58 45 -68 -3 -8 -6 -21 -6 -30 0 -9 -8 -13 -22 -11 -15
2 -23 10 -23 23 0 16 -6 19 -30 16 -37 -4 -51 -11 -37 -20 6 -3 -4 -21 -23
-42 l-33 -37 -24 37 c-18 28 -33 39 -71 48 -27 6 -64 23 -82 38 -27 20 -42 24
-67 20 -18 -3 -35 -11 -39 -16 -4 -6 -15 1 -27 16 -13 16 -28 25 -36 22 -11
-4 -13 3 -9 34 4 27 1 45 -10 57 -18 20 -12 81 9 89 8 3 14 9 14 14 0 4 -6 6
-14 3 -7 -3 -27 9 -44 25 -30 31 -55 37 -100 25 -20 -6 -23 -12 -21 -53 3 -51
-18 -94 -41 -87 -8 2 -42 16 -75 30 l-59 25 -32 -47 c-39 -58 -63 -81 -65 -61
-1 8 -2 19 -3 24 -2 19 -21 42 -48 59 -35 23 -80 10 -127 -36 -35 -34 -71 -40
-122 -20 -36 14 -28 53 16 90 19 15 36 39 40 53 6 26 0 33 -83 100 -7 6 -10
22 -7 37 3 20 -3 34 -26 58 -27 28 -35 31 -64 24 -19 -4 -36 -6 -38 -4 -2 2
-12 -5 -22 -16 -10 -11 -22 -20 -27 -20 -6 0 -20 -8 -31 -17 -18 -15 -21 -27
-19 -69 3 -48 1 -52 -22 -56 -17 -4 -26 0 -29 12 -2 9 -24 26 -48 37 -35 16
-54 19 -92 13 -58 -8 -62 -12 -63 -58 -3 -76 -1 -72 -47 -72 -37 0 -45 4 -60
30 -16 26 -21 28 -43 20 -21 -8 -29 -6 -50 17 -13 14 -24 30 -24 34 0 5 -18
13 -39 19 l-39 10 17 58 c21 66 40 100 60 104 7 2 19 22 26 45 14 46 8 58 -57
126 -33 34 -34 37 -9 86 l20 38 -28 27 c-15 14 -32 26 -38 26 -5 0 -26 16 -46
35 -20 19 -44 35 -53 35 -10 0 -26 8 -36 17 -17 15 -20 15 -46 -10 l-27 -25
-18 24 c-18 24 -18 24 8 24 26 0 29 7 19 34 -8 22 -31 20 -46 -4 -7 -11 -19
-20 -26 -20 -7 0 -23 -10 -36 -23 -15 -15 -37 -24 -67 -26 -24 -1 -58 -9 -75
-16 -24 -10 -35 -10 -44 -2 -10 9 -12 8 -7 -5 6 -16 -24 -48 -45 -48 -12 0 3
32 29 64 l24 28 -33 24 c-17 13 -36 24 -40 24 -34 0 -156 -118 -194 -186 -45
-81 -82 -122 -117 -129 -39 -9 -60 -30 -93 -95 -14 -28 -29 -48 -34 -45 -5 3
-21 -12 -35 -34 -14 -22 -36 -48 -49 -56 -13 -9 -30 -29 -36 -46 -11 -25 -10
-32 3 -47 8 -9 20 -35 26 -57 6 -22 22 -53 36 -69 l24 -30 -20 -28 c-15 -21
-26 -27 -43 -22 -15 4 -30 -3 -48 -21 -24 -24 -25 -28 -12 -54 8 -16 21 -34
28 -40 8 -7 20 -26 27 -44 7 -18 18 -39 25 -47 7 -9 11 -24 10 -35 -2 -11 3
-35 10 -54 8 -19 12 -36 10 -38 -2 -3 -21 0 -41 6 -39 11 -73 3 -93 -22 -10
-12 -9 -23 4 -56 15 -39 15 -42 -5 -74 -24 -39 -27 -57 -8 -57 43 -1 89 -92
65 -130 -6 -10 -42 -33 -79 -51 -57 -29 -68 -39 -73 -67 -4 -18 -4 -37 0 -44
4 -6 6 -45 5 -87 -3 -90 -3 -100 2 -168 3 -41 9 -56 32 -75 l28 -25 -21 -35
c-12 -19 -28 -54 -36 -76 -14 -38 -13 -42 2 -51 15 -9 15 -12 -6 -33 -22 -24
-27 -53 -16 -94 6 -24 151 -97 217 -109 34 -7 38 -11 44 -47 4 -28 12 -42 24
-45 23 -6 23 -7 0 -76 -20 -57 -17 -68 17 -78 10 -3 8 -12 -9 -33 -27 -35 -32
-90 -10 -109 9 -8 30 -18 46 -21 17 -4 37 -13 45 -20 17 -14 60 -31 104 -41
18 -4 25 -9 18 -14 -7 -4 -1 -17 20 -39 30 -33 33 -57 3 -32 -21 17 -62 5 -82
-26 -10 -16 -16 -45 -16 -73 0 -25 -1 -34 -4 -19 -4 27 -13 32 -63 40 -8 1
-44 -3 -80 -10 -36 -7 -81 -11 -100 -9 -31 2 -35 -1 -40 -28 -4 -20 -8 -26
-13 -17 -7 9 -15 8 -37 -8 -22 -16 -30 -17 -37 -8 -4 7 -8 15 -8 18 -1 28 -32
70 -56 79 -25 8 -29 15 -29 45 0 32 -3 36 -26 36 -14 0 -34 4 -44 10 -26 14
-86 -13 -93 -41 -4 -14 1 -33 13 -50 19 -25 19 -29 4 -64 -14 -35 -17 -36 -56
-33 -34 2 -44 -1 -59 -22 -10 -14 -20 -43 -24 -65 -8 -54 -17 -60 -61 -37 -38
19 -38 19 -69 -1 -19 -12 -41 -43 -59 -83 l-29 -64 -49 0 c-58 0 -67 13 -45
68 15 37 13 87 -4 98 -5 3 -31 7 -57 9 -31 2 -50 9 -57 21 -20 34 -43 51 -79
58 -31 6 -39 3 -61 -21 -13 -15 -25 -33 -25 -39 0 -6 -11 -21 -24 -33 -28 -27
-26 -73 5 -107 10 -11 19 -26 19 -32 0 -19 -46 -25 -77 -9 -27 15 -31 14 -76
-19 -56 -41 -75 -88 -45 -117 10 -10 18 -29 18 -43 0 -25 -1 -25 -72 -23 -40
1 -73 -2 -74 -7 -2 -39 -28 -125 -40 -134 -18 -16 -18 -10 0 25 11 22 12 33 3
54 -17 37 -48 61 -68 51 -33 -18 -54 -1 -67 53 -15 64 -15 104 -2 112 25 15
-2 105 -32 105 -5 0 -25 7 -44 16 -25 12 -35 24 -40 49 -6 34 -39 74 -51 62
-3 -4 -13 -1 -20 5 -14 11 -38 14 -154 21 -25 1 -53 8 -62 15 -13 11 -18 7
-37 -23 -22 -35 -37 -47 -27 -21 6 16 -39 63 -50 52 -4 -3 -7 -22 -7 -41 0
-19 -6 -37 -13 -39 -6 -3 -10 -14 -8 -25 3 -14 -8 -30 -35 -51 -24 -19 -49
-54 -67 -92 -31 -66 -50 -69 -28 -5 14 41 12 44 -31 51 -32 6 -93 -24 -95 -46
-1 -7 -2 -28 -4 -45 -1 -18 -10 -49 -20 -70 -13 -26 -17 -58 -16 -117 2 -77 0
-84 -35 -141 -33 -56 -35 -64 -30 -116 6 -51 5 -56 -17 -68 -22 -12 -23 -16
-15 -45 8 -26 6 -41 -12 -80 -23 -52 -19 -66 21 -69 14 -1 44 -21 68 -44 31
-31 51 -43 72 -43 27 0 30 -3 24 -22 -7 -23 -12 -28 -54 -58 -44 -31 -13 -99
53 -116 30 -7 87 -42 116 -70 8 -8 24 -21 35 -29 20 -15 20 -15 -4 -35 -13
-11 -37 -20 -53 -20 -29 0 -29 0 -24 -47 5 -49 25 -78 54 -78 14 0 16 -8 14
-42 -3 -36 1 -46 24 -68 15 -14 27 -25 28 -25 1 0 16 4 35 10 46 13 57 3 29
-27 l-23 -26 23 12 c29 15 29 3 -2 -57 -13 -26 -29 -65 -36 -88 -12 -40 -11
-41 24 -80 19 -21 38 -51 42 -66 3 -16 10 -28 15 -28 5 0 9 -6 9 -13 0 -7 17
-33 39 -57 21 -24 38 -51 36 -60 -1 -10 10 -19 34 -26 l36 -11 2 -72 c1 -79 2
-81 30 -85 13 -2 19 -13 21 -37 2 -19 14 -46 29 -61 25 -26 28 -27 112 -22 47
3 103 12 124 20 39 15 37 16 41 -28 1 -7 7 -16 15 -19 12 -4 11 -7 -2 -12 -9
-3 -17 -2 -17 3 0 6 -9 10 -19 10 -15 0 -19 -5 -15 -22 3 -13 7 -39 8 -59 2
-20 6 -41 9 -46 4 -6 -13 -18 -36 -27 -24 -9 -53 -30 -65 -46 -25 -33 -89 -70
-122 -70 -12 0 -19 -4 -15 -10 3 -5 12 -7 20 -3 17 6 20 -12 4 -23 -6 -3 -9
-15 -6 -25 4 -14 -3 -20 -27 -28 -59 -18 -75 -19 -92 -7 -15 11 -15 15 4 52
24 48 19 61 -27 65 -32 4 -35 2 -38 -26 -6 -44 -20 -52 -34 -22 -10 21 -15 24
-26 16 -12 -11 -27 -14 -75 -18 -10 0 -26 -19 -38 -43 l-20 -43 22 -17 c13
-10 32 -21 44 -24 11 -3 25 -19 32 -36 12 -32 6 -41 -66 -95 -27 -20 -29 -26
-22 -60 4 -21 13 -50 20 -66 15 -32 9 -43 -17 -29 -27 15 -89 -13 -102 -46
-13 -32 -16 -114 -6 -160 5 -23 3 -32 -7 -32 -7 0 -24 -12 -37 -26 l-24 -25
-20 22 c-11 12 -22 40 -24 63 -3 22 -14 51 -25 63 -19 21 -23 21 -49 7 -16 -8
-29 -12 -29 -9 0 4 -14 -3 -30 -15 l-31 -22 -32 25 c-27 20 -36 22 -62 14 -50
-17 -54 -28 -69 -164 -4 -40 -2 -43 33 -59 20 -10 44 -17 53 -16 22 1 20 -33
-3 -54 -14 -13 -22 -13 -39 -4 -18 10 -24 8 -36 -7 -7 -10 -16 -26 -19 -35 -4
-10 -10 -18 -15 -18 -5 0 -14 -16 -20 -36 -14 -41 0 -88 31 -105 11 -5 19 -16
19 -24 0 -17 16 -20 25 -5 4 6 11 8 16 4 6 -4 2 -16 -11 -29 -18 -19 -31 -23
-66 -21 -28 2 -41 -1 -35 -7 6 -6 4 -21 -6 -42 -19 -40 -49 -37 -58 7 -9 37
-30 31 -30 -9 0 -20 -9 -38 -30 -56 l-30 -27 -28 33 c-41 46 -75 99 -79 122
-4 24 -57 77 -70 69 -19 -12 -66 -15 -73 -5 -4 7 -15 5 -30 -5 -24 -16 -25
-15 -42 20 -9 20 -21 36 -25 36 -5 0 -6 -4 -3 -10 3 -5 1 -10 -4 -10 -6 0 -11
5 -11 11 0 15 -65 5 -96 -16 -14 -9 -35 -18 -47 -21 -12 -2 -30 -14 -41 -26
-10 -13 -25 -22 -32 -20 -21 4 -38 -41 -25 -66 6 -11 7 -23 3 -26 -12 -7 -35
10 -29 22 4 5 -2 17 -12 26 -17 15 -20 15 -42 -3 -18 -14 -21 -22 -12 -32 6
-8 9 -30 8 -49 -2 -19 1 -42 5 -50 6 -10 3 -21 -7 -33 -15 -16 -20 -46 -23
-162 -1 -38 -2 -38 -12 -15 -17 40 -20 95 -9 136 10 35 7 43 -41 132 -38 71
-58 97 -80 107 -24 10 -27 13 -13 19 9 3 21 4 26 0 10 -6 10 -5 14 41 1 17 3
35 4 42 0 7 7 10 14 8 6 -3 18 4 25 15 10 17 9 25 -5 48 -10 15 -28 37 -40 49
l-23 22 -34 -30 c-34 -30 -35 -30 -38 -7 -5 39 -36 34 -54 -7 -19 -46 -15 -71
11 -67 13 2 7 -6 -17 -23 -30 -20 -38 -32 -39 -58 0 -29 -1 -30 -9 -9 -11 26
-18 27 -45 6 -17 -13 -18 -16 -5 -24 8 -5 18 -10 22 -10 4 0 5 -6 2 -13 -5
-14 75 -87 95 -87 24 0 20 -23 -9 -57 -40 -45 -30 -56 58 -72 42 -7 72 -18 88
-33 29 -28 29 -29 0 -72 -20 -31 -22 -41 -15 -81 5 -25 12 -53 17 -63 5 -9 10
-35 11 -56 1 -22 11 -51 21 -67 11 -15 31 -51 45 -80 21 -46 23 -63 20 -133
-5 -85 7 -116 46 -116 23 0 30 -21 12 -41 -12 -14 -11 -21 4 -48 10 -17 20
-31 23 -31 3 0 5 -25 4 -56 -1 -76 25 -104 60 -65 14 16 23 18 42 10 14 -5 49
-11 78 -14 45 -5 54 -3 60 12 6 15 8 15 16 3 15 -23 12 -58 -6 -85 -17 -26
-13 -88 6 -100 5 -3 29 2 55 10 25 9 58 14 73 11 15 -3 56 -13 92 -21 36 -8
71 -13 78 -10 7 3 15 -2 19 -10 6 -16 -31 -55 -52 -55 -21 0 -24 -39 -7 -70
11 -19 28 -32 47 -35 58 -12 67 -16 61 -32 -4 -11 -2 -13 9 -10 8 4 20 1 27
-6 42 -39 46 -40 63 -8 10 20 27 34 48 39 40 11 50 6 43 -23 -3 -13 -1 -27 5
-30 6 -4 10 -32 9 -64 -2 -63 9 -141 20 -141 10 0 89 -37 114 -53 11 -7 42
-27 70 -44 28 -18 61 -33 74 -33 15 0 26 -7 29 -19 4 -14 12 -17 41 -14 20 2
42 9 48 14 12 10 38 -35 83 -145 l12 -30 19 29 19 29 10 -27 c11 -27 64 -67
90 -67 8 0 27 14 43 32 15 17 28 26 28 20 0 -7 7 -12 15 -12 8 0 15 7 15 15 0
9 11 20 24 25 13 5 32 22 42 39 28 48 54 56 96 32 31 -19 37 -20 48 -6 22 27
38 16 66 -45 15 -33 29 -60 32 -60 2 0 13 12 24 26 l21 25 23 -39 c30 -50 77
-64 105 -31 10 11 22 18 28 15 5 -4 15 3 21 14 6 11 17 20 24 20 8 0 28 16 45
35 32 37 46 43 54 23 3 -10 9 -10 25 -1 27 16 34 4 20 -35 -11 -30 -10 -34 22
-68 19 -21 30 -34 24 -31 -17 10 -62 -62 -70 -111 -4 -24 -18 -57 -31 -72 -22
-26 -24 -45 -11 -86 1 -7 -18 -30 -43 -53 -52 -45 -63 -42 -68 19 -3 37 -16
52 -41 47 -16 -3 -18 -34 -5 -79 7 -27 6 -28 -33 -28 -23 0 -43 5 -45 13 -4 8
-6 8 -6 -2 -1 -8 -11 -25 -23 -38 -25 -27 -32 -97 -12 -114 8 -6 28 -9 46 -6
44 6 88 -17 87 -46 0 -12 -8 -42 -18 -67 l-19 -45 52 -47 51 -47 -32 -11 c-46
-17 -60 -58 -39 -115 10 -24 30 -58 46 -75 25 -26 27 -34 20 -66 -9 -39 -23
-54 -52 -54 -20 0 -48 26 -48 44 0 7 -8 20 -18 30 -31 27 -78 11 -113 -40 -24
-35 -35 -43 -52 -39 -29 7 -76 -32 -83 -69 -7 -39 12 -91 49 -133 28 -32 34
-34 73 -28 38 5 43 4 49 -16 5 -16 2 -26 -10 -35 -10 -8 -21 -11 -25 -9 -23
14 -24 -117 -2 -163 13 -26 21 -32 37 -27 52 16 65 14 81 -16 14 -28 14 -31
-8 -49 -13 -11 -31 -19 -40 -20 -9 0 -20 -5 -23 -10 -9 -15 22 -60 40 -60 8 0
15 -5 15 -12 0 -6 7 -20 17 -30 16 -17 15 -17 -15 -2 -17 8 -44 16 -59 17 -25
2 -28 -2 -37 -41 l-9 -44 -46 7 c-51 8 -121 40 -121 56 0 15 -63 39 -74 28 -6
-5 -21 -9 -34 -9 -15 0 -37 -14 -58 -37 -23 -26 -34 -33 -34 -22 0 23 -26 44
-33 27 -2 -8 -12 0 -23 19 -18 31 -42 40 -36 14 2 -10 -24 -75 -47 -121 -5 -8
-17 -17 -27 -18 -25 -5 -44 -30 -44 -58 0 -14 -8 -25 -21 -29 -16 -6 -19 -12
-14 -36 5 -22 3 -29 -8 -29 -19 0 -34 -18 -42 -52 -6 -23 -3 -28 19 -34 15 -3
31 -15 37 -25 5 -11 16 -19 24 -19 8 0 15 -6 16 -12 4 -61 23 -108 66 -165 34
-47 6 -43 -31 4 -16 20 -31 50 -33 67 -3 36 -62 96 -92 96 -11 0 -23 5 -26 10
-4 6 -23 19 -43 29 -37 19 -43 21 -62 21 -5 0 -10 15 -10 33 0 17 -7 41 -15
51 -13 18 -13 22 7 44 l23 23 -25 20 c-14 10 -37 25 -52 33 -24 12 -29 12 -47
-5 -10 -10 -22 -28 -26 -39 -4 -11 -12 -20 -18 -19 -14 3 -87 -12 -87 -17 0
-15 55 -78 66 -76 16 3 18 -7 5 -41 -8 -20 -6 -27 5 -31 8 -3 12 -11 9 -17 -4
-6 -13 -8 -21 -5 -30 12 -43 -4 -32 -37 15 -45 37 -62 53 -40 8 11 18 14 31 8
25 -11 30 -12 54 -14 13 -1 22 -10 26 -28 10 -49 23 -73 39 -73 9 0 41 12 72
26 47 23 58 25 78 14 14 -8 26 -25 30 -46 11 -59 34 -102 70 -130 19 -14 35
-32 35 -38 0 -19 41 -52 80 -65 56 -18 107 -67 142 -137 22 -43 38 -64 50 -64
44 0 68 -15 68 -43 0 -28 11 -43 30 -42 27 2 47 -14 53 -43 5 -24 13 -30 51
-39 40 -9 46 -8 46 6 0 24 20 41 47 41 12 0 38 14 57 31 29 25 39 28 55 20 20
-11 24 -21 36 -78 8 -40 42 -68 62 -51 7 6 13 7 13 2 0 -5 12 8 26 28 17 23
41 42 63 49 20 6 40 15 45 20 6 5 28 9 50 9 23 0 47 7 59 17 19 18 19 18 0
-22 -16 -32 -18 -47 -10 -72 11 -38 37 -45 83 -25 28 13 35 12 79 -11 l49 -24
47 21 c36 16 50 28 54 48 4 16 12 28 19 28 7 0 19 -12 27 -28 8 -15 16 -29 19
-32 3 -3 17 -21 30 -40 13 -19 28 -38 32 -41 4 -3 72 -3 151 -1 78 2 159 4
180 3 31 0 40 4 49 24 6 14 15 25 19 25 24 0 96 -51 118 -84 l26 -39 11 38
c12 44 25 53 44 30 8 -10 29 -15 60 -15 44 0 48 2 60 32 7 18 23 59 36 91 13
32 24 66 24 75 1 9 7 28 15 42 l13 25 7 -28 c9 -33 20 -35 30 -5 3 13 8 18 11
11 3 -7 1 -20 -4 -29 -8 -14 -1 -21 35 -40 24 -13 49 -23 55 -21 7 1 11 -20
11 -63 -1 -36 5 -76 12 -90 14 -28 12 -75 -5 -95 -16 -19 17 -68 41 -62 13 4
21 -4 28 -25 9 -25 8 -29 -4 -24 -16 6 -27 -7 -30 -38 -4 -35 -5 -36 -18 -36
-8 0 -22 -8 -31 -19 -9 -10 -29 -21 -45 -24 -17 -4 -38 -20 -54 -44 -26 -37
-26 -41 -14 -83 7 -25 16 -44 20 -42 4 1 21 2 37 2 20 0 39 9 55 25 l23 26 35
-31 c28 -24 35 -37 33 -62 -2 -20 6 -40 22 -59 19 -24 32 -29 67 -29 47 0 73
-18 53 -38 -7 -7 -17 -12 -24 -12 -18 0 -22 -52 -7 -88 10 -24 27 -38 70 -57
32 -15 64 -30 72 -34 16 -8 41 -85 32 -98 -11 -14 -46 -14 -90 2 -57 20 -81
19 -81 -2 0 -30 -35 -123 -46 -123 -19 0 -43 -34 -52 -76 -8 -37 -7 -44 17
-71 14 -16 47 -43 73 -60 l47 -32 33 35 c37 39 61 43 82 12 13 -18 13 -24 1
-42 -20 -27 -19 -42 5 -90 40 -80 41 -81 102 -55 29 13 55 26 58 30 3 3 15 3
27 -2 17 -6 21 -14 17 -31 -3 -13 -7 -32 -8 -43 -2 -11 -4 -20 -6 -20 -1 0 -3
-13 -4 -30 -1 -17 6 -37 16 -47 17 -17 17 -20 2 -35 -16 -16 -16 -58 0 -94 5
-12 -3 -19 -36 -29 -67 -21 -93 -22 -149 -6 -48 15 -54 15 -71 -1 -10 -9 -18
-22 -18 -28 0 -7 -7 -15 -15 -19 -8 -3 -12 -12 -9 -20 3 -7 -5 -23 -17 -34
-14 -14 -19 -27 -15 -39 5 -13 1 -12 -15 6 l-23 24 -21 -27 c-11 -14 -26 -26
-33 -26 -7 0 -13 -12 -14 -27 -3 -54 -5 -68 -11 -83 -13 -37 -15 -64 -5 -85 7
-16 7 -29 -1 -43 -9 -17 -7 -23 11 -36 12 -9 31 -16 41 -16 11 0 17 -5 14 -12
-2 -8 -16 -12 -35 -10 -23 3 -33 -2 -42 -17 -15 -29 4 -65 31 -58 26 7 99 -29
129 -65 14 -16 52 -44 85 -63 58 -33 68 -50 13 -21 -15 8 -30 11 -33 6 -9 -14
-51 10 -66 37 -19 36 -39 43 -90 31 -24 -6 -70 -11 -103 -12 -47 -1 -62 -6
-76 -24 -26 -32 -31 -27 -24 24 6 44 5 45 -26 57 -28 11 -31 15 -25 44 5 28 3
33 -19 39 -13 3 -33 1 -44 -5 -10 -5 -31 -8 -46 -5 -22 4 -26 1 -26 -20 0 -14
4 -36 10 -50 7 -19 6 -24 -4 -20 -7 3 -32 -7 -57 -20 -24 -14 -39 -26 -33 -26
5 0 20 -9 32 -20 12 -12 22 -16 22 -10 0 6 12 2 28 -10 l27 -22 12 39 13 38
-4 -47 c-2 -33 3 -57 15 -77 15 -25 16 -32 4 -48 -19 -25 -19 -28 9 -41 19 -9
27 -8 36 4 7 8 21 14 32 14 24 0 90 29 100 44 4 6 8 21 8 34 0 13 4 21 9 18
10 -7 2 -54 -10 -62 -5 -3 -2 -16 7 -30 12 -18 25 -24 53 -24 33 0 38 4 63 49
26 46 29 48 70 47 38 -1 45 -5 70 -43 24 -36 35 -43 73 -48 24 -4 64 -18 90
-30 37 -19 57 -23 103 -19 90 8 134 -2 181 -42 22 -20 41 -33 41 -30 0 3 10 2
23 -3 15 -6 29 -4 42 5 10 8 32 14 47 14 25 0 28 -3 24 -26 -5 -25 -4 -25 36
-20 23 3 43 8 46 11 7 7 46 -16 60 -37 13 -18 14 -18 41 2 16 10 31 17 35 13
3 -3 6 1 6 10 0 9 -4 17 -10 17 -20 0 -9 27 16 40 35 19 68 68 66 97 -3 39 34
26 94 -33 20 -19 39 -34 44 -34 20 0 40 13 40 27 0 18 71 156 83 162 5 1 28
18 53 37 l44 34 0 -38 c0 -34 4 -40 34 -54 32 -16 35 -15 67 6 52 34 100 53
144 55 30 1 63 59 61 107 l-1 31 45 -19 c25 -11 56 -30 71 -44 14 -13 34 -24
45 -24 24 0 85 37 102 62 8 10 19 18 25 16 13 -2 48 17 125 67 72 45 87 63 87
98 0 26 4 31 20 29 11 -2 40 -3 65 -4 25 0 57 -6 72 -14 42 -22 43 -22 40 19
-3 30 0 37 15 38 59 2 120 33 104 53 -5 6 -12 28 -16 49 -6 31 -4 41 11 52 18
13 18 14 -1 29 -11 8 -17 17 -13 21 4 4 -2 29 -12 55 l-19 48 34 33 c19 19 37
44 40 56 3 13 11 23 18 24 6 0 23 2 37 4 14 1 38 -3 54 -11 38 -18 37 -19 33
20 -4 33 -2 35 42 51 61 23 72 37 59 81 -7 25 -6 39 3 50 8 9 8 14 1 14 -6 0
-9 6 -6 13 2 7 -2 32 -11 56 -20 57 -19 61 10 61 14 0 25 5 25 10 0 7 6 7 18
1 27 -14 90 -6 114 15 12 10 18 13 14 6 -17 -28 5 -82 54 -133 34 -35 50 -61
50 -78 0 -27 44 -59 56 -40 3 6 14 -7 25 -27 17 -35 17 -40 3 -61 -12 -20 -21
-23 -53 -19 -31 4 -43 0 -60 -18 l-22 -23 29 -6 c17 -3 41 -4 55 -1 14 2 28 0
32 -6 6 -10 -10 -44 -33 -68 -19 -21 8 -84 50 -120 19 -15 78 11 78 35 0 10 7
28 15 40 13 19 19 20 46 11 16 -6 36 -20 44 -32 8 -11 29 -29 48 -39 33 -18
35 -18 68 2 49 30 59 27 59 -18 0 -63 42 -93 123 -90 57 3 114 -8 132 -24 12
-12 8 -66 -6 -68 -5 -1 -18 -3 -29 -4 -11 -1 -24 -3 -30 -4 -5 0 -7 -8 -4 -16
4 -8 2 -15 -2 -15 -5 0 -20 -16 -33 -35 -20 -30 -22 -37 -10 -51 18 -21 20
-45 7 -62 -6 -7 -12 -28 -14 -47 -3 -45 26 -70 104 -90 60 -16 64 -15 95 2 21
12 35 31 42 55 9 32 12 34 33 25 12 -6 22 -19 22 -31 0 -50 12 -65 64 -84 96
-36 94 -36 101 -3 10 48 71 86 93 58 13 -17 21 -67 11 -67 -16 0 -9 -29 9 -39
11 -6 24 -5 37 2 11 6 25 12 31 13 6 1 22 5 35 8 24 7 24 7 -3 -18 -15 -13
-34 -40 -42 -60 l-15 -36 28 0 c20 0 30 -6 34 -19 7 -28 -83 -114 -121 -117
-47 -3 -82 -32 -84 -68 -5 -104 -5 -102 -29 -125 -12 -11 -18 -24 -15 -30 3
-5 -3 -12 -14 -16 l-20 -6 20 -26 c11 -14 20 -31 20 -38 0 -7 7 -16 16 -19 12
-5 15 -16 12 -42 -3 -29 1 -40 21 -57 14 -12 28 -31 29 -42 5 -26 21 -45 38
-45 8 0 11 -6 8 -15 -9 -23 4 -62 23 -69 11 -5 25 2 40 19 27 28 63 32 114 12
19 -8 54 -13 78 -12 44 2 44 2 22 -16 -19 -16 -26 -16 -58 -5 -39 13 -83 5
-111 -22 -7 -6 -17 -12 -20 -12 -4 0 -19 -10 -32 -22 -14 -13 -41 -34 -59 -46
-31 -23 -33 -23 -52 -6 -11 10 -32 18 -46 19 -20 0 -27 6 -30 24 -5 35 -8 36
-53 22 -29 -9 -40 -17 -40 -31 0 -11 -7 -20 -15 -20 -12 0 -14 -7 -11 -27 2
-16 5 -31 5 -34 1 -3 19 -12 42 -19 22 -8 43 -18 46 -23 5 -8 -15 -4 -54 10
-6 2 -25 -17 -43 -42 l-32 -47 30 5 c17 3 35 8 40 11 6 3 13 -9 16 -27 8 -42
21 -61 35 -52 9 5 6 17 -9 42 -11 20 -19 37 -17 39 2 2 17 7 34 10 26 5 31 3
37 -19 7 -29 33 -42 52 -26 24 20 15 -2 -18 -44 l-32 -40 38 7 c37 7 112 46
89 46 -20 0 -15 16 16 49 26 27 35 31 84 31 64 0 79 13 79 67 0 80 46 110 120
78 21 -8 39 -15 40 -16 2 0 21 8 43 17 22 9 64 18 93 19 42 2 58 8 76 28 38
41 86 61 141 59 84 -4 131 7 160 35 23 23 29 25 46 15 17 -11 24 -9 50 13 22
18 38 24 57 20 18 -3 40 4 66 21 l39 26 -26 17 c-30 18 -33 27 -14 45 16 17
22 103 7 121 -7 9 -7 15 3 23 9 8 24 5 56 -9 37 -16 50 -18 78 -8 27 9 33 16
33 39 0 16 -4 32 -10 35 -16 10 -12 126 5 159 8 15 15 35 15 44 0 13 2 13 18
-1 9 -8 35 -17 57 -19 48 -5 71 13 80 62 9 51 21 58 50 30 l25 -23 0 42 c0 23
7 55 15 70 20 39 10 95 -21 111 -40 22 -16 31 72 27 46 -3 84 0 84 5 0 4 11
13 24 19 16 8 28 26 36 55 7 25 19 44 26 44 8 0 14 7 14 15 0 16 25 60 47 83
7 7 13 19 13 26 0 7 13 25 30 41 28 27 29 29 13 59 -9 17 -20 34 -25 37 -8 5
92 59 109 59 2 0 15 7 29 16 l25 17 -22 20 -22 20 27 14 c14 7 35 32 46 54
l21 40 -29 27 c-16 15 -39 43 -52 62 -14 19 -41 50 -63 69 -43 39 -37 51 26
51 39 0 62 19 109 89 18 26 25 18 8 -9 -7 -11 1 -21 36 -43 25 -15 58 -30 72
-32 40 -5 82 -26 114 -59 24 -24 31 -27 39 -15 5 8 9 21 9 29 0 11 11 15 43
14 62 -3 62 -3 43 -17 -16 -12 -16 -14 3 -39 12 -14 21 -30 21 -35 0 -5 -21
-15 -47 -22 -26 -6 -55 -19 -65 -28 -18 -16 -14 -45 5 -37 7 2 31 6 54 8 l41
4 -4 -44 c-7 -57 17 -84 83 -94 40 -6 49 -5 64 13 13 17 14 27 7 50 -23 64 39
104 102 65 46 -27 63 -23 116 32 26 27 50 47 54 45 4 -2 5 -17 2 -34 -3 -23 1
-32 19 -41 33 -18 96 -14 133 8 18 11 49 25 69 31 20 7 37 19 39 27 2 11 10
10 36 -8 26 -19 31 -28 26 -48 -3 -14 -12 -32 -20 -41 -7 -8 -17 -31 -20 -50
-4 -19 -11 -42 -15 -51 -7 -12 -4 -18 12 -23 33 -11 62 -44 51 -58 -15 -18 16
-86 42 -93 41 -10 61 -7 129 15 60 20 67 26 68 49 2 36 2 33 -6 70 -5 25 -3
33 11 39 21 8 50 -10 46 -30 -5 -29 168 -40 195 -13 4 4 8 31 9 60 2 84 18 96
65 46 16 -16 29 -37 29 -46 0 -9 6 -14 13 -11 6 2 11 9 10 14 -2 10 33 15 64
8 15 -3 20 -10 16 -23 -3 -15 6 -24 45 -40 l49 -21 -16 -61 c-12 -46 -26 -71
-58 -103 -27 -28 -41 -49 -38 -62 2 -11 4 -30 4 -42 1 -14 12 -26 32 -35 30
-12 31 -15 26 -62 -7 -76 8 -115 51 -134 25 -11 37 -24 37 -37 0 -15 10 -22
40 -30 22 -5 45 -17 52 -26 15 -19 58 -15 87 10 18 15 19 15 12 -4 -4 -11 -10
-32 -13 -47 -4 -23 -1 -28 21 -34 30 -7 36 -4 40 23 2 10 9 18 17 18 8 0 24 9
37 20 12 11 26 20 30 20 37 3 92 21 121 41 48 32 75 32 39 -1 -16 -13 -28 -28
-28 -33 0 -13 -25 -22 -59 -22 -34 0 -53 -20 -85 -90 -13 -30 -36 -70 -50 -89
-32 -43 -32 -47 1 -56 25 -6 26 -8 10 -17 -13 -7 -29 -5 -56 6 -27 10 -41 12
-49 4 -7 -7 -21 -7 -46 2 -43 14 -67 1 -64 -34 1 -11 -2 -35 -6 -53 l-7 -32
52 -7 c50 -7 51 -7 27 -20 -27 -14 -43 -50 -27 -60 9 -5 68 11 102 28 17 9 16
10 -5 29 -17 14 -10 12 26 -7 39 -21 57 -25 89 -20 33 6 38 4 34 -9 -4 -9 -1
-15 8 -15 10 0 13 11 11 40 -2 22 0 40 4 40 3 0 7 22 9 49 2 41 -2 52 -21 65
-33 23 -5 20 36 -5 l36 -21 29 24 c37 29 38 42 6 74 -26 26 -31 56 -16 96 7
20 21 27 74 38 57 12 69 18 94 51 15 21 42 45 58 53 34 17 68 53 71 76 7 46
49 98 98 121 28 13 68 39 88 57 31 28 36 37 28 56 -13 35 3 49 63 55 4 1 7 9
7 19 0 18 29 52 44 52 11 0 76 54 76 63 0 4 -15 14 -34 22 -29 12 -34 19 -30
40 3 16 -3 37 -14 53 -10 15 -22 35 -25 45 -4 9 -13 17 -22 17 -8 0 -15 4 -15
8 0 19 37 40 79 45 24 3 48 10 54 16 19 19 12 71 -11 87 -37 26 -78 119 -87
197 -3 28 -3 28 46 24 29 -2 53 1 59 8 5 6 11 36 13 67 5 61 13 82 28 73 5 -4
9 5 9 19 0 14 -4 28 -10 31 -5 3 -7 19 -3 35 7 36 -36 100 -68 100 -10 0 -19
4 -19 9 0 14 22 28 78 47 69 24 84 50 77 135 -2 34 -1 67 2 73 4 6 8 44 10 85
2 42 10 85 17 96 13 20 11 25 -15 53 -17 18 -39 32 -50 32 -28 0 -24 17 22 78
38 49 40 56 25 67 -21 16 -20 26 9 87 20 42 23 55 13 64 -26 25 -165 92 -216
104 -44 10 -52 15 -47 31 3 10 1 28 -5 40 -9 17 -9 20 0 14 16 -10 92 15 87
29 -6 19 -57 19 -78 0 -19 -17 -21 -17 -40 3 l-21 20 30 62 30 62 -24 11 c-22
10 -22 12 -8 49 15 36 15 39 -7 68 -13 17 -29 31 -36 31 -7 0 -13 4 -13 8 0 7
-105 42 -128 42 -12 0 -13 4 -16 40 0 12 -8 25 -16 30 -12 8 -11 10 7 10 26 0
44 28 50 79 3 20 6 37 8 39 1 1 13 -7 28 -18 30 -24 71 -26 119 -6 19 8 49 13
67 10 42 -7 108 31 90 52 -10 12 -8 13 7 8 10 -4 24 -10 29 -14 6 -4 27 -13
48 -19 47 -16 47 -36 2 -58 -23 -11 -34 -22 -30 -31 3 -7 5 -22 5 -33 0 -24
14 -24 37 0 17 17 55 41 67 41 3 0 6 -7 6 -15 0 -8 5 -15 11 -15 6 0 9 -9 6
-19 -9 -37 91 -34 148 3 l25 17 -34 30 c-19 16 -36 40 -38 52 -4 30 30 67 62
67 40 0 90 20 91 36 1 8 3 19 4 24 1 6 3 28 4 50 0 22 6 40 11 40 6 0 10 -7
10 -15 0 -19 41 -29 85 -21 36 7 52 25 94 109 26 51 54 70 89 60 22 -5 30 -28
34 -103 3 -60 36 -92 87 -83 14 2 22 1 18 -3 -11 -12 10 -38 47 -58 34 -18 36
-18 73 1 36 18 103 101 103 127 0 6 -14 26 -30 45 -23 26 -28 37 -19 47 15 18
33 18 48 0 17 -20 62 -4 128 46 44 34 51 43 43 59 -6 10 -16 22 -23 26 -11 7
-37 55 -37 68 0 12 69 21 99 12 40 -11 57 4 67 60 8 43 24 53 24 15 0 -17 8
-39 18 -51 14 -18 22 -20 49 -12 22 6 36 6 46 -2 34 -28 48 -133 25 -197 -9
-28 -9 -35 2 -38 8 -3 24 -15 36 -27 13 -13 40 -27 61 -32 47 -11 69 -47 53
-89 -14 -35 -6 -40 68 -43 31 -1 62 -7 69 -12 8 -7 29 -7 65 0 29 6 64 12 78
13 14 2 26 10 26 18 1 8 2 21 3 28 0 6 6 12 13 12 8 0 9 -3 1 -11 -11 -11 -3
-70 10 -71 22 -2 67 13 67 22 0 5 -8 15 -19 22 -18 11 -17 13 8 52 41 63 117
140 125 127 4 -6 4 -11 0 -11 -4 0 1 -9 11 -20 18 -19 17 -20 -7 -20 -13 0
-34 -10 -46 -23 -19 -20 -21 -29 -14 -68 5 -25 5 -54 2 -64 -4 -11 -6 -22 -5
-25 2 -3 6 -22 9 -44 7 -45 14 -58 27 -51 5 3 6 -1 3 -10 -5 -13 -9 -13 -21
-3 -13 10 -21 6 -46 -22 -17 -19 -37 -34 -45 -32 -25 6 -64 -27 -57 -49 4 -10
8 -30 9 -44 2 -14 5 -28 9 -31 11 -11 74 6 97 26 17 15 34 19 77 17 43 -3 57
1 67 15 12 16 15 17 26 3 11 -13 16 -12 41 6 32 22 31 40 -1 32 -17 -5 -20 0
-20 26 0 18 -7 46 -16 62 -14 29 -14 32 3 45 18 14 23 16 46 18 14 1 14 9 4
52 -6 24 -19 37 -53 54 -32 17 -44 30 -45 47 -2 35 -3 41 -11 49 -5 4 -8 11
-8 16 0 4 3 7 8 6 12 -2 57 19 69 33 5 8 13 27 17 44 4 16 19 54 32 84 27 58
32 110 16 151 -13 33 7 92 43 130 20 21 26 38 28 76 1 27 -2 59 -6 72 -6 17
-5 22 7 22 17 0 19 7 17 62 -1 26 6 45 23 64 l24 28 -21 28 c-11 15 -26 28
-32 28 -7 0 -26 13 -42 29 -17 16 -47 35 -67 42 -44 16 -47 41 -8 77 16 15 34
37 40 49 15 27 -2 42 -105 93 -49 25 -75 45 -88 67 -10 18 -27 35 -38 39 -16
5 -17 8 -6 15 8 5 23 9 34 9 11 1 31 15 44 31 l24 30 -30 32 c-32 34 -56 92
-53 129 3 38 1 43 -31 57 -36 16 -65 18 -96 7 -33 -11 -29 4 22 80 52 78 53
103 4 159 -18 20 -27 39 -23 49 4 10 0 18 -10 22 -9 3 -16 12 -16 19 0 8 -16
34 -35 59 -19 26 -35 52 -35 60 0 13 -46 50 -64 51 -5 0 -10 9 -12 20 -10 67
-19 93 -43 125 -15 19 -28 44 -29 55 -7 78 -16 84 -119 78 -47 -3 -104 -11
-126 -19 -22 -8 -41 -14 -42 -14 -1 0 -14 11 -29 25 -20 19 -23 25 -11 25 9 0
25 10 35 23 23 28 18 76 -12 126 -16 25 -17 32 -6 23 31 -24 92 -4 147 49 28
27 78 59 84 53 3 -3 13 6 23 21 17 26 17 28 -4 44 l-22 16 30 2 c67 4 150 1
181 -6 3 0 16 -10 29 -21 31 -27 76 -23 122 10 35 25 36 27 23 57 -8 17 -23
34 -37 38 -81 23 -82 40 -7 115 54 54 60 77 28 121 -22 32 -21 66 2 61 65 -16
81 -12 108 31 15 24 19 49 19 102 0 39 2 78 4 89 6 26 34 39 68 31 23 -5 31
-13 36 -39 4 -25 15 -39 46 -56 36 -20 45 -22 74 -11 26 9 38 9 56 0 12 -6 36
-13 52 -16 28 -3 35 2 64 45 25 37 33 60 34 95 1 48 -21 87 -47 87 -7 0 -23 9
-36 19 -23 19 -23 20 -5 40 10 11 21 19 25 18 3 -1 21 4 39 12 36 15 66 63 77
124 l7 36 -41 7 c-23 4 -45 12 -48 18 -17 27 -8 47 29 68 21 12 38 26 38 30 0
5 8 8 18 6 10 -2 17 3 17 12 0 25 39 57 65 53 13 -2 30 3 39 11 24 21 43 22
72 3 34 -23 83 -93 75 -106 -4 -6 0 -26 8 -46 16 -38 22 -40 119 -37 27 0 55
6 63 12 11 10 16 7 23 -13 19 -50 86 -64 126 -26 12 11 29 16 40 13 14 -3 36
7 67 32 50 38 63 62 53 94 -9 27 1 25 46 -11 21 -17 43 -28 48 -25 10 7 3 44
-11 63 -5 7 -7 16 -4 21 3 5 -1 20 -9 35 -11 21 -11 27 -1 27 12 0 35 95 38
155 1 44 8 66 19 59 5 -3 8 -11 7 -18 -2 -7 11 -24 27 -39 l30 -26 -36 -38
c-34 -36 -35 -40 -25 -75 6 -20 24 -49 39 -65 16 -15 41 -49 57 -75 16 -27 34
-48 40 -48 6 0 21 21 33 48 13 26 29 46 36 44 12 -2 50 35 51 51 0 4 -10 21
-22 37 -15 21 -30 30 -50 30 -36 0 -104 34 -118 59 -5 11 -6 21 -2 23 4 2 19
24 34 49 24 43 24 48 10 75 -9 16 -17 45 -18 64 -6 70 -15 100 -40 127 -40 43
-64 97 -58 129 12 68 10 105 -9 122 -27 24 -60 99 -54 121 2 11 -4 26 -15 35
-15 13 -19 27 -17 63 3 40 0 47 -20 55 -13 5 -31 6 -41 3 -9 -3 -35 1 -57 9
-23 8 -43 13 -45 12 -1 -2 -18 -6 -35 -9 -29 -6 -35 -3 -47 21 -12 24 -12 32
0 61 19 45 18 48 -12 68 -21 13 -45 16 -114 14 -72 -2 -95 1 -128 18 -22 11
-43 17 -47 13 -4 -4 0 6 10 21 10 15 21 46 25 68 8 44 1 52 -74 74 -31 9 -42
19 -51 44 -12 37 -27 48 -70 52 -35 4 -95 -18 -95 -35 0 -6 -5 -3 -11 7 -6 10
-8 30 -4 45 3 14 8 47 11 72 4 42 1 49 -26 74 -17 15 -50 34 -72 42 -22 7 -61
31 -87 52 -25 22 -51 37 -57 35 -7 -2 -33 10 -59 28 -40 27 -50 30 -68 20 -20
-10 -29 -5 -85 49 -35 33 -70 60 -77 60 -8 0 -21 13 -31 28 -25 44 -47 53 -86
40 -50 -18 -131 -72 -167 -113 -31 -36 -32 -36 -79 -26 -25 5 -49 8 -53 5 -4
-2 -9 2 -12 10 -3 8 -18 20 -34 29 -15 8 -41 21 -57 30 -22 12 -33 13 -43 5
-9 -7 -13 -7 -13 0 0 6 -12 25 -26 42 -21 25 -33 31 -58 28 -34 -3 -106 -50
-160 -104 -32 -32 -35 -33 -41 -15 -7 22 -26 19 -60 -8 -15 -12 -14 -9 4 11
21 24 22 30 11 63 -7 21 -22 41 -36 47 -31 14 -30 18 5 49 19 17 35 46 46 82
9 31 20 59 25 62 16 10 42 74 35 85 -4 7 -20 10 -36 8 -15 -3 -26 -1 -23 4 3
4 11 8 18 8 6 0 30 21 51 46 32 38 44 45 67 42 16 -3 29 1 32 9 4 10 15 8 51
-7 l45 -19 6 24 c4 15 13 25 24 25 11 0 21 13 28 39 7 21 12 41 12 43 0 11
-57 29 -86 26 -39 -3 -50 5 -58 42 -4 24 0 40 19 67 23 35 24 37 7 65 -9 16
-34 39 -55 51 -37 21 -45 45 -14 39 20 -3 45 33 52 79 5 30 0 43 -30 82 -19
25 -35 52 -35 59 0 8 -4 18 -9 24 -6 5 1 22 19 44 l28 35 39 -22 c46 -26 113
-40 113 -24 0 6 6 11 13 11 8 0 21 8 30 18 9 10 33 19 53 20 48 4 48 4 64 51
11 36 10 45 -11 98 -31 78 -42 86 -106 79 -59 -7 -70 7 -35 41 24 23 34 48 39
102 8 79 1 89 -66 97 -86 9 -90 15 -49 63 38 45 45 96 15 113 -23 12 -47 38
-47 49 0 6 10 3 22 -5 35 -25 53 -19 94 28 31 35 42 42 58 36 12 -4 40 -14 64
-21 26 -7 55 -26 73 -47 27 -31 33 -33 70 -27 29 5 43 14 51 31 6 13 19 24 29
24 9 0 19 7 23 15 6 16 41 21 50 6 3 -5 22 -11 41 -13 29 -3 38 0 51 20 8 13
16 32 17 43 1 11 9 19 19 19 10 0 21 8 24 18 2 9 16 39 30 65 l25 48 -20 25
c-20 25 -20 25 0 45 24 24 24 30 0 60 -10 13 -21 42 -23 64 -5 41 -40 119 -58
130 -5 3 -10 13 -10 21 0 14 2 13 16 0 8 -9 26 -16 38 -16 21 0 24 -7 34 -66
6 -37 12 -67 14 -68 2 0 44 -22 95 -48 104 -52 110 -51 111 25 0 26 6 54 12
62 15 18 3 74 -17 82 -9 4 -30 1 -47 -6 -42 -17 -106 -14 -129 7 -14 12 -17
26 -14 54 4 33 0 41 -37 76 -22 21 -57 58 -76 81 -19 23 -45 44 -58 46 -50 9
-94 47 -118 102 -21 47 -30 56 -81 81 -42 19 -58 33 -58 47 0 13 -13 26 -37
37 -21 10 -50 36 -64 58 -30 46 -37 48 -57 20 -8 -11 -27 -22 -43 -24 -43 -5
-103 -37 -110 -58 -3 -10 -11 -18 -18 -18 -23 0 -37 26 -38 74 0 40 -4 47 -24
52 -30 8 -74 -9 -138 -53 -26 -18 -59 -33 -73 -33 -13 0 -32 -4 -42 -9 -34
-18 -51 11 -38 66 8 33 -14 44 -92 44 -55 0 -71 4 -71 15 0 8 -4 14 -10 14 -5
0 -10 -4 -10 -9 0 -6 -14 -5 -35 0 -28 8 -39 7 -51 -5 -8 -9 -20 -16 -25 -16
-6 0 -17 -17 -26 -37 l-15 -38 -19 24 c-10 12 -24 41 -31 63 -6 22 -21 46 -33
54 -23 15 -115 22 -133 10 -6 -3 -13 -3 -16 2 -7 11 -211 13 -241 2 -14 -5
-25 -17 -25 -26 0 -12 -4 -14 -12 -7 -7 6 -35 17 -62 26 -36 13 -53 14 -69 6
-15 -9 -32 -7 -73 7 -53 18 -54 18 -77 -4 -28 -26 -82 -132 -97 -190 -11 -41
-13 -43 -38 -37 -35 9 -40 14 -22 25 8 6 12 10 8 11 -5 1 -11 2 -15 3 -5 1
-19 9 -33 18 -14 9 -38 20 -55 23 -57 13 -57 12 -29 57 26 41 26 43 11 83 -8
23 -13 57 -11 76 3 32 -8 67 -29 97 -7 9 -19 3 -48 -23 -37 -34 -68 -42 -103
-29 -34 13 -16 29 27 26 59 -5 97 27 102 83 2 22 4 44 4 48 1 4 18 15 39 24
20 8 41 21 45 29 4 8 12 14 16 14 5 0 23 13 40 29 22 21 31 38 31 61 0 30 -27
90 -40 90 -4 0 -21 -13 -38 -29 -35 -31 -69 -32 -95 -2 -12 13 -24 66 -26 117
-1 11 -26 21 -81 30 -43 8 -60 15 -60 25 0 5 6 9 14 9 15 0 26 30 26 77 0 22
-8 38 -29 56 -27 22 -90 56 -133 70 -49 17 14 114 65 102 15 -4 39 0 60 10 40
18 53 39 56 85 0 11 14 26 31 35 37 19 59 60 42 77 -7 7 -12 22 -12 34 0 15
-15 32 -47 53 -25 17 -52 31 -59 31 -7 0 -19 2 -26 5 -8 3 -26 -6 -41 -20 -41
-41 -84 -18 -61 33 19 44 -7 106 -63 150 -38 30 -38 30 -62 11 -30 -24 -42
-24 -69 1 -16 15 -20 28 -16 45 3 14 3 33 -1 42 -13 29 -17 65 -9 82 4 9 6 37
5 63 -2 57 10 65 103 76 47 6 68 5 84 -6 17 -11 25 -11 50 2 35 18 54 46 70
104 13 42 16 44 70 45 33 0 51 33 56 103 2 33 6 64 7 69 2 8 -3 36 -17 98 -1
4 -2 12 -3 17 0 6 -10 10 -20 10 -25 0 -36 16 -18 27 8 4 17 15 20 23 4 10 6
7 6 -7 1 -13 6 -23 11 -23 19 0 22 29 6 52 -9 12 -16 16 -16 9 0 -8 -7 -5 -17
8 -10 12 -30 22 -45 23 -16 1 -28 8 -28 16 0 21 -74 87 -125 112 -25 12 -43
26 -40 30 5 8 17 8 78 -6 15 -3 27 -2 28 3 6 49 3 76 -13 89 -31 29 -199 81
-236 73 -62 -13 -119 0 -182 40 -57 37 -60 38 -116 29 -47 -7 -60 -6 -75 8
-11 9 -25 13 -38 9 -12 -3 -36 2 -60 15 -54 27 -88 26 -97 -2 -4 -13 -20 -36
-35 -52 -16 -17 -35 -45 -41 -63 -13 -36 -41 -50 -77 -38 -12 3 -21 12 -21 19
0 24 -28 38 -60 31 -26 -6 -36 -17 -61 -70 -27 -58 -46 -82 -107 -138 -20 -18
-21 -17 -68 27 -26 25 -53 46 -61 46 -7 0 -20 -12 -30 -27 -27 -45 -39 -51
-83 -43 -36 7 -44 4 -77 -25 -30 -26 -36 -37 -35 -68 1 -20 -3 -39 -7 -42 -5
-2 -31 10 -57 28 -27 19 -66 37 -87 41 -33 6 -43 3 -77 -24 -21 -17 -64 -42
-95 -55 -31 -14 -65 -33 -76 -44 -20 -18 -49 -35 -81 -45 -11 -3 -18 -15 -18
-29 0 -14 -6 -29 -12 -35 -13 -10 -72 -21 -120 -22 -20 0 -27 -6 -30 -22 -2
-19 -10 -24 -43 -26 -23 -2 -54 -14 -73 -29 -31 -23 -32 -27 -26 -66 4 -23 6
-60 6 -82 -1 -22 5 -59 14 -83 13 -34 13 -46 4 -57 -7 -8 -16 -12 -21 -9 -5 3
-9 -1 -9 -8 0 -19 -70 -72 -100 -76 -32 -4 -45 -17 -45 -45 0 -18 -6 -21 -40
-24 -50 -3 -100 -51 -89 -86 4 -12 8 -47 9 -77 1 -30 6 -65 10 -77 5 -14 3
-23 -3 -23 -6 0 -14 -16 -18 -35 l-6 -35 -38 30 c-37 29 -39 29 -73 15 l-35
-15 -7 39 c-4 26 -19 50 -46 77 -22 21 -49 58 -60 81 -19 40 -23 43 -55 39
-42 -5 -54 13 -56 80 0 36 5 51 27 74 19 20 23 29 13 33 -9 4 -7 9 9 21 18 14
22 24 19 58 -3 33 -11 49 -41 77 -37 33 -39 33 -53 15 -7 -10 -19 -32 -24 -47
-9 -25 -15 -28 -42 -24 -43 6 -70 21 -90 52 -22 33 -41 31 -139 -10 -15 -6
-17 -3 -15 21 2 33 -26 93 -45 95 -57 5 -97 5 -124 -2 -39 -8 -65 8 -83 51
-16 39 -3 57 55 71 35 9 44 16 48 37 5 30 3 54 -7 93 -5 17 -2 37 8 56 14 27
13 33 -2 67 -19 39 -28 43 -118 50 -58 4 -62 3 -83 -24 -11 -16 -21 -36 -21
-44 0 -8 -5 -18 -10 -21 -18 -11 -40 16 -40 50 0 27 -5 35 -27 44 -16 6 -42
20 -59 31 -48 31 -86 19 -113 -36 -11 -25 -26 -42 -31 -39 -5 3 -24 30 -42 60
-37 62 -56 68 -128 39 -23 -9 -43 -14 -47 -11 -3 3 6 9 21 13 14 3 40 23 56
45 30 37 31 38 10 49 -12 6 -26 23 -31 38 -10 25 -7 30 42 74 36 31 66 49 92
53 44 8 62 35 69 107 4 37 1 51 -14 68 -19 20 -19 20 17 41 19 12 35 27 35 34
0 7 2 20 5 27 3 8 -4 23 -15 35 -18 20 -27 45 -29 80 -1 6 -13 25 -27 42 -14
17 -23 35 -19 40 9 15 -27 29 -55 21 -17 -4 -29 -1 -37 9 -19 24 -16 29 19 33
46 4 53 38 8 38 -18 0 -33 -6 -36 -15 -4 -10 -10 -12 -18 -6 -7 6 -20 5 -36
-4 -21 -11 -30 -10 -64 7 -29 15 -57 20 -108 19 -37 0 -68 1 -68 4 0 2 17 13
38 23 26 14 45 17 67 11 69 -17 114 -17 131 2 8 9 40 30 71 45 52 27 54 29 49
60 -5 26 -3 32 13 37 23 6 41 -10 41 -35 0 -13 13 -21 45 -29 25 -6 43 -15 40
-19 -3 -4 7 -11 21 -14 21 -6 33 -1 55 20 36 34 36 47 2 73 -26 19 -27 21 -10
33 18 13 18 14 -1 32 -19 17 -20 17 -27 -4 -6 -20 -7 -20 -27 5 -11 15 -38 37
-60 51 -21 14 -36 29 -33 34 14 22 -33 8 -62 -19z m-418 -423 c30 -14 33 -28
4 -28 -11 0 -29 -5 -39 -10 -16 -9 -18 -7 -15 10 4 21 14 40 20 40 2 0 16 -5
30 -12z m45 -68 c0 -11 -16 -37 -35 -58 l-36 -37 28 57 c29 60 43 72 43 38z
m-50 -235 c0 5 5 4 12 -3 9 -9 7 -16 -9 -31 -15 -15 -30 -18 -65 -14 -30 4
-55 0 -76 -11 -17 -9 -33 -16 -35 -16 -9 0 -2 35 10 47 6 7 13 18 15 24 2 6
28 14 58 18 42 6 59 4 73 -7 9 -8 17 -11 17 -7z m4270 -455 c17 -17 30 -40 30
-50 0 -21 -72 -80 -97 -80 -21 0 -15 16 12 34 14 10 31 28 37 42 15 33 -3 46
-52 38 l-35 -5 30 25 c17 14 34 26 38 26 4 0 21 -14 37 -30z m-175 -38 c-3 -3
-11 0 -18 7 -9 10 -8 11 6 5 10 -3 15 -9 12 -12z m-8099 -48 c-3 -9 -6 -19 -6
-24 0 -4 -9 -6 -20 -3 -10 3 -32 -4 -49 -16 -35 -25 -37 -25 -44 -7 -6 16 19
49 43 59 8 3 30 6 49 6 26 1 32 -2 27 -15z m24 -64 c11 -21 3 -47 -24 -69 -21
-18 -26 -1 -14 47 12 46 22 52 38 22z m8061 -77 c9 -10 19 -30 23 -45 6 -24 3
-28 -26 -36 -27 -7 -39 -4 -67 15 -18 13 -46 23 -61 23 -33 0 -43 9 -30 25 8
9 6 14 -4 18 -18 7 -30 -8 -20 -24 4 -7 -1 -7 -16 1 -27 14 -23 18 42 46 48
20 56 21 97 8 24 -7 52 -21 62 -31z m-356 8 c6 -3 16 -6 23 -7 26 -4 23 -12
-5 -16 -17 -2 -43 5 -68 19 l-40 24 40 -7 c22 -4 45 -9 50 -13z m-3525 -38
c-1 -21 -19 -35 -36 -29 -18 7 -18 8 0 22 22 15 36 18 36 7z m-14 -71 c-18
-16 -18 -16 -6 6 6 13 14 21 18 18 3 -4 -2 -14 -12 -24z m194 8 c-12 -22 -30
-18 -30 6 0 8 9 14 20 14 18 0 19 -3 10 -20z m-4301 -65 c23 -11 27 -19 24
-40 -4 -20 -11 -25 -33 -25 -21 0 -37 -10 -59 -37 -25 -31 -32 -34 -45 -23
-14 10 -16 9 -16 -8 0 -11 -6 -25 -14 -31 -11 -9 -13 -7 -11 11 1 13 3 31 4
40 0 9 10 20 21 23 23 7 27 25 5 25 -22 0 -19 6 23 45 41 38 59 42 101 20z
m7939 -8 c21 1 21 0 6 -12 -14 -10 -24 -10 -53 2 -49 20 -53 27 -11 17 19 -4
45 -7 58 -7z m-7867 -129 c-8 -23 -51 -57 -51 -41 0 11 45 63 54 63 3 0 2 -10
-3 -22z m-294 -168 c-20 -29 -57 -54 -65 -45 -4 4 11 22 32 41 42 37 57 38 33
4z m2247 -271 c-9 -10 -25 -19 -35 -19 -15 0 -13 6 12 32 16 18 30 39 30 48 1
8 4 2 6 -13 3 -18 -2 -36 -13 -48z m3351 -7 c-20 -30 -32 -39 -52 -37 -42 2
-37 18 13 39 25 10 48 25 51 33 3 8 8 12 10 9 2 -2 -7 -22 -22 -44z m-4807
-17 c-14 -31 -23 -25 -14 10 4 14 11 23 16 20 6 -3 5 -16 -2 -30z m432 25 c0
-5 -2 -10 -4 -10 -3 0 -8 5 -11 10 -3 6 -1 10 4 10 6 0 11 -4 11 -10z m6800
-100 c-6 -12 -21 -20 -36 -20 -29 0 -24 17 10 30 33 13 38 12 26 -10z m-2220
-80 c-20 -13 -33 -13 -25 0 3 6 14 10 23 10 15 0 15 -2 2 -10z m2390 -7 c0 -5
-12 -16 -25 -26 -25 -18 -25 -18 -25 8 0 20 5 25 25 25 14 0 25 -3 25 -7z
m-5501 -211 c-6 -15 -10 -28 -10 -29 5 -18 -2 -25 -12 -12 -23 30 -52 31 -80
3 -15 -15 -27 -31 -27 -35 0 -18 -16 -8 -33 20 l-17 28 38 7 c63 11 76 27 64
80 -5 25 -7 48 -4 50 2 3 24 -15 48 -40 38 -41 42 -49 33 -72z m5548 -74 c-3
-8 -6 -5 -6 6 -1 11 2 17 5 13 3 -3 4 -12 1 -19z m-5605 -633 c3 -14 2 -25 -2
-25 -3 0 -17 11 -30 25 l-23 25 25 0 c19 0 27 -6 30 -25z m5948 -767 c0 -9 78
30 86 43 3 5 9 9 13 9 11 0 -28 -113 -42 -122 -7 -4 -22 -8 -34 -8 -18 0 -23
6 -23 24 0 31 -15 42 -72 50 -53 8 -61 23 -28 56 l21 21 39 -33 c22 -18 40
-36 40 -40z m-9070 -206 c0 -27 -17 -62 -30 -62 -5 0 -6 9 -1 22 4 12 5 37 1
55 -4 17 -5 35 -2 38 10 10 32 -27 32 -53z m11680 -37 c0 -7 -4 -16 -10 -20
-5 -3 -7 -12 -4 -20 10 -24 -36 -75 -68 -75 -15 0 -28 5 -28 10 0 6 6 10 13
10 8 0 23 10 35 23 l22 24 -20 18 -21 19 20 8 c12 4 21 14 21 23 0 13 4 14 20
5 11 -6 20 -17 20 -25z m-13424 -52 c-12 -12 -23 17 -18 45 l6 27 9 -33 c6
-18 7 -36 3 -39z m13314 51 c0 -2 -9 -4 -20 -4 -11 0 -20 4 -20 9 0 5 9 7 20
4 11 -3 20 -7 20 -9z m-11115 -34 c3 -5 1 -10 -4 -10 -6 0 -11 5 -11 10 0 6 2
10 4 10 3 0 8 -4 11 -10z m10898 -34 c15 -11 35 -32 43 -47 16 -32 18 -53 5
-45 -5 3 -11 -1 -15 -9 -3 -9 0 -15 10 -15 8 0 13 -4 10 -9 -4 -5 -18 -6 -33
-2 -21 6 -29 16 -34 41 -4 19 -16 40 -26 48 -55 41 -67 52 -50 46 10 -4 17 -1
17 5 0 16 40 9 73 -13z m-2869 -32 c7 -18 -29 -61 -38 -45 -4 5 -2 12 4 16 5
3 10 15 10 26 0 23 15 25 24 3z m-10694 -231 c-11 -17 -11 -17 -6 0 3 10 6 24
7 30 0 9 2 9 5 0 3 -7 0 -20 -6 -30z m90 -18 c12 -19 20 -40 18 -47 -4 -12
-40 33 -51 65 -11 30 10 18 33 -18z m-87 -45 c3 -11 3 -20 1 -20 -2 0 -8 9
-14 20 -6 11 -7 20 -2 20 6 0 12 -9 15 -20z m254 -155 c-25 -23 -39 -49 -41
-79 -2 -29 -21 -30 -34 -2 -8 19 -8 36 1 68 10 35 18 44 39 46 16 2 28 11 33
25 6 21 7 20 16 -8 8 -25 6 -33 -14 -50z m837 0 c-3 -7 -12 -16 -19 -19 -11
-4 -12 0 -3 19 11 25 31 25 22 0z m-724 -14 c0 -10 -9 -29 -20 -42 -11 -13
-18 -17 -15 -9 21 68 35 88 35 51z m6855 -81 c3 -13 0 -29 -6 -36 -8 -10 -4
-31 15 -78 14 -35 26 -70 26 -76 0 -8 9 -11 23 -8 15 3 38 -5 62 -22 36 -25
39 -26 71 -11 27 13 33 20 29 39 -3 12 -1 22 4 22 5 0 11 -10 15 -22 3 -13 15
-38 26 -57 l21 -33 25 23 c13 12 24 28 24 34 0 14 85 95 99 95 5 0 12 -9 16
-19 19 -62 87 -95 143 -72 31 13 62 58 55 79 -5 14 38 -9 65 -35 17 -16 35
-16 51 0 18 17 47 -21 56 -73 5 -30 16 -47 43 -68 40 -30 95 -41 118 -22 12
10 14 8 14 -12 0 -15 10 -33 23 -43 15 -11 24 -28 24 -46 0 -37 6 -43 30 -31
25 14 39 4 58 -41 18 -45 18 -44 0 -51 -9 -3 -24 3 -36 15 -11 11 -38 22 -59
25 -35 5 -40 3 -40 -14 0 -11 9 -26 19 -33 13 -10 21 -30 24 -63 3 -32 10 -52
21 -58 10 -5 26 -24 37 -41 17 -29 19 -30 19 -9 0 17 6 22 25 22 l25 0 -32 29
c-18 16 -29 33 -25 37 12 12 89 5 126 -12 30 -15 33 -19 28 -50 -3 -19 -3 -34
1 -34 32 0 82 25 100 50 13 16 26 29 30 28 4 -1 26 2 50 6 41 8 42 9 42 47 0
49 12 50 81 4 30 -19 56 -35 59 -35 3 0 13 12 23 26 18 24 18 26 -7 80 -14 31
-26 60 -26 64 0 5 16 14 35 20 29 10 35 16 35 41 0 16 4 29 9 29 26 0 41 -15
41 -40 0 -15 7 -33 15 -40 8 -7 15 -18 15 -26 0 -7 10 -16 21 -19 19 -6 20
-12 15 -49 -4 -22 -9 -59 -12 -81 -3 -22 -7 -45 -9 -51 -2 -6 8 -24 21 -39 19
-23 22 -31 12 -43 -10 -11 -6 -19 22 -42 30 -25 104 -56 113 -48 2 2 16 -6 32
-16 l29 -19 22 28 c19 24 30 28 75 29 l52 1 12 -59 c18 -89 66 -113 185 -95
20 3 26 -1 28 -18 2 -15 13 -24 32 -28 26 -6 39 -23 46 -61 1 -6 -4 -33 -11
-60 -7 -29 -9 -56 -4 -65 6 -12 3 -21 -14 -32 -12 -8 -32 -35 -45 -60 -13 -26
-34 -55 -48 -66 -13 -10 -24 -24 -24 -31 0 -6 -9 -23 -20 -37 l-20 -25 28 -27
c16 -14 36 -38 46 -53 16 -24 16 -29 1 -57 -14 -28 -14 -34 0 -61 9 -17 28
-35 43 -41 30 -11 82 -66 82 -86 0 -7 -16 -23 -35 -35 -19 -13 -37 -29 -40
-37 -8 -21 14 -31 41 -19 17 8 33 7 62 -5 21 -9 48 -14 58 -12 10 2 24 4 30 4
7 1 14 10 17 20 3 11 17 22 35 26 16 3 32 14 35 24 7 27 86 28 117 1 l25 -21
20 25 c12 14 30 26 41 26 20 0 27 -13 49 -97 4 -14 17 -26 37 -31 l30 -7 -64
-34 c-45 -23 -70 -43 -83 -67 -10 -19 -22 -34 -27 -34 -5 0 -7 -9 -3 -19 3
-11 7 -28 9 -38 2 -10 9 -38 16 -62 6 -24 9 -49 6 -57 -3 -7 -1 -16 4 -19 14
-9 38 5 43 26 5 18 37 28 37 10 0 -4 -13 -24 -30 -42 -35 -39 -36 -50 -12 -72
14 -13 21 -13 40 -3 20 11 30 9 69 -11 26 -13 52 -23 60 -23 18 0 17 -4 -12
-57 -28 -53 -25 -86 11 -120 30 -27 80 -39 100 -22 20 16 43 -3 26 -23 -5 -7
-13 -29 -17 -49 -6 -32 -4 -37 15 -42 31 -8 20 -48 -26 -90 -28 -26 -35 -40
-36 -72 -2 -70 1 -81 27 -95 30 -16 24 -27 -27 -49 l-39 -16 19 -25 c24 -33
38 -67 20 -53 -7 6 -24 14 -38 18 -23 7 -23 6 9 -30 l33 -39 -33 -27 c-38 -32
-45 -34 -46 -16 -6 121 -30 163 -53 92 -6 -19 -17 -35 -23 -35 -21 -1 -108
-70 -116 -92 -8 -24 13 -78 31 -78 6 0 18 8 27 18 24 27 53 21 79 -15 12 -18
27 -33 32 -33 11 0 70 -50 70 -60 0 -4 -11 -10 -25 -13 -22 -4 -28 1 -39 27
-12 30 -13 30 -20 9 -5 -15 -15 -23 -31 -23 -21 0 -22 -3 -16 -27 6 -23 14
-29 45 -33 20 -3 38 -9 39 -15 1 -5 5 -9 10 -8 4 2 26 -16 48 -38 l42 -42 34
17 c44 21 45 21 39 -11 -19 -117 -20 -107 14 -137 l33 -27 18 28 c11 15 28 42
39 59 29 44 53 48 74 13 17 -28 36 -39 36 -19 0 5 8 14 19 19 16 9 20 6 24
-15 3 -19 -3 -35 -24 -59 -16 -18 -29 -44 -29 -59 0 -15 -6 -26 -14 -26 -7 0
-19 -6 -25 -14 -6 -7 -24 -16 -39 -19 -47 -10 -143 -58 -149 -76 -3 -9 -12
-30 -21 -47 -13 -27 -13 -38 -2 -77 7 -26 10 -57 6 -70 -4 -18 1 -29 19 -45
14 -12 28 -22 33 -22 4 0 27 -21 51 -46 l44 -47 -34 -28 c-19 -16 -36 -29 -39
-29 -3 0 -14 -15 -24 -34 -15 -29 -16 -40 -6 -70 9 -29 8 -39 -5 -60 l-17 -25
34 5 c50 9 67 -15 38 -55 -16 -24 -19 -35 -11 -49 13 -25 -12 -49 -60 -58 -40
-8 -62 -18 -83 -39 -12 -13 -20 -14 -37 -5 -22 12 -102 16 -118 5 -6 -3 -23 1
-39 9 -20 10 -32 12 -39 5 -8 -8 -17 -7 -32 1 -28 14 -41 5 -41 -28 -1 -15
-12 -40 -26 -57 l-25 -30 6 27 c6 23 4 26 -14 21 -16 -4 -19 -9 -11 -23 15
-29 12 -40 -12 -40 -35 -1 -53 -21 -56 -65 -2 -21 -7 -44 -13 -51 -5 -6 -8
-22 -7 -35 3 -19 -3 -24 -27 -29 -16 -3 -42 0 -56 7 -28 14 -59 8 -59 -11 0
-6 12 -25 28 -41 52 -57 53 -60 42 -90 -14 -36 -1 -44 62 -41 48 2 49 2 94
-56 42 -53 44 -60 36 -92 -9 -32 -8 -35 15 -41 14 -3 33 -3 44 0 23 8 23 7 5
-36 -8 -19 -26 -44 -41 -56 -17 -13 -27 -31 -27 -47 0 -22 -3 -24 -19 -15 -11
5 -19 13 -19 17 0 5 -23 14 -50 21 -28 7 -54 20 -60 29 -9 16 -9 16 -10 0 0
-10 -1 -18 -2 -18 -2 0 -23 6 -47 14 -39 11 -48 11 -73 -3 -34 -19 -41 -36
-28 -62 8 -14 7 -19 -2 -19 -8 0 -24 -7 -36 -16 -30 -21 -13 -44 34 -44 24 0
34 -5 34 -16 0 -10 -8 -15 -22 -14 -59 5 -88 -1 -98 -19 -8 -15 -6 -24 7 -37
25 -25 53 -91 53 -125 0 -29 -1 -29 -45 -26 -62 5 -101 -20 -115 -73 -12 -45
-3 -73 34 -102 18 -16 19 -18 4 -19 -24 -2 -29 -3 -60 -19 -28 -13 -32 -21
-28 -49 1 -11 -10 -12 -57 -6 -92 11 -126 7 -144 -17 -9 -11 -21 -18 -27 -14
-6 3 -13 -6 -17 -24 -9 -40 -16 -43 -65 -26 l-42 14 -11 -29 c-11 -29 -39 -49
-36 -26 1 6 -2 22 -6 35 -7 21 -8 21 -20 5 -8 -10 -17 -15 -21 -11 -4 4 -1 14
6 23 7 8 9 15 4 16 -5 0 1 4 14 10 15 5 22 15 20 26 -4 18 -11 19 -68 10 -15
-2 -41 6 -62 20 -41 25 -78 31 -120 19 -53 -15 -41 -73 14 -62 17 3 33 0 43
-10 20 -20 19 -21 -10 -56 -14 -16 -25 -35 -25 -43 0 -7 -14 -18 -31 -24 -41
-14 -39 -14 -39 8 0 20 -18 31 -51 31 -16 0 -19 -5 -14 -19 12 -40 14 -61 3
-61 -6 0 -3 -12 7 -26 13 -20 14 -28 5 -34 -9 -6 -8 -10 4 -17 15 -8 15 -12
-7 -34 -20 -20 -22 -29 -15 -56 6 -24 15 -33 38 -38 17 -4 30 -10 30 -14 0 -9
-58 -39 -92 -47 -15 -3 -34 -16 -42 -29 -14 -21 -13 -24 4 -40 28 -25 26 -30
-22 -46 l-43 -13 35 -4 c22 -2 38 2 45 11 15 21 106 26 135 7 12 -8 10 -14
-14 -39 l-28 -30 40 -12 c41 -12 46 -26 14 -46 -14 -8 -26 -7 -54 7 -31 15
-40 15 -68 4 -38 -16 -42 -15 -135 60 -64 51 -74 56 -121 56 -52 0 -76 -12
-132 -67 -12 -12 -28 -20 -36 -17 -19 7 -29 -37 -20 -91 4 -32 2 -45 -9 -51
-8 -5 -21 -22 -29 -37 l-14 -28 -26 20 c-14 11 -28 18 -30 15 -3 -2 -16 0 -30
5 -39 15 -82 -17 -114 -84 -19 -37 -32 -54 -42 -50 -7 3 -32 -6 -55 -19 l-42
-25 -53 50 c-48 45 -63 54 -84 50 -5 0 -8 5 -8 12 0 7 -12 38 -28 68 -15 30
-33 73 -40 97 -7 23 -17 42 -21 42 -5 0 -11 9 -14 20 -6 24 -53 37 -78 21 -21
-12 -50 -15 -48 -3 1 4 1 22 0 40 -1 28 -4 32 -30 32 -16 0 -31 6 -34 13 -3 9
-10 7 -23 -5 -17 -17 -17 -18 -1 -18 9 0 17 -4 17 -10 0 -5 -16 -10 -35 -10
-19 0 -35 -4 -35 -10 0 -6 -9 -6 -25 0 -22 8 -27 6 -36 -14 -6 -13 -17 -23
-25 -22 -23 4 -54 38 -54 61 0 13 -9 33 -19 46 l-19 24 -11 -28 c-6 -16 -11
-34 -11 -42 0 -13 -66 -85 -79 -85 -4 0 -1 -35 6 -77 11 -59 12 -85 4 -107 -9
-22 -14 -26 -25 -17 -15 12 -26 5 -26 -18 0 -9 -11 -25 -25 -35 -16 -12 -25
-29 -25 -47 0 -38 -15 -44 -61 -24 -32 15 -41 16 -54 5 -21 -18 -30 -5 -17 24
6 14 9 35 6 48 -3 13 -6 28 -7 34 -2 6 -10 23 -20 37 -9 15 -17 42 -17 61 0
29 -5 36 -34 50 -44 21 -66 20 -66 -1 0 -15 -1 -15 -18 0 -10 10 -25 17 -33
17 -24 0 -60 -30 -52 -43 4 -7 -10 3 -31 21 -39 34 -56 34 -56 -1 0 -20 -1
-20 -13 -3 -12 16 -16 17 -35 5 -20 -13 -20 -13 -1 -27 10 -7 24 -10 30 -6 8
4 8 0 0 -15 -6 -11 -21 -26 -34 -32 -12 -6 -32 -20 -43 -31 -22 -19 -22 -19
-32 9 -17 47 -57 81 -95 81 -39 0 -83 -35 -93 -73 -8 -33 -17 -31 -46 5 -21
27 -26 29 -57 20 -41 -11 -54 1 -71 70 -13 54 -26 71 -65 89 -40 19 -54 21
-61 10 -8 -14 -41 -11 -47 5 -3 8 -3 23 0 35 4 15 -1 23 -20 32 -14 6 -23 17
-21 24 6 15 -38 28 -69 20 -12 -2 -16 -2 -9 1 6 3 12 15 12 27 0 15 -3 18 -8
9 -6 -9 -12 -6 -20 12 -11 25 -11 25 33 23 32 -1 44 -6 40 -15 -3 -8 0 -10 6
-6 6 4 25 8 41 9 41 4 47 14 12 21 -21 4 -29 12 -30 27 -2 54 -17 145 -29 174
l-14 32 -38 -15 c-37 -15 -39 -18 -37 -53 1 -21 -2 -45 -7 -52 -5 -8 -9 -10
-9 -6 0 5 -6 5 -12 0 -7 -4 -20 -8 -28 -9 -8 -1 -27 -2 -42 -3 -15 0 -34 -8
-43 -17 -11 -11 -20 -13 -26 -7 -7 7 2 23 25 47 41 42 46 75 17 123 -14 22
-16 33 -8 36 7 2 -3 3 -22 2 -36 -2 -42 -13 -41 -76 0 -36 -34 -69 -72 -69
-25 0 -28 -3 -19 -14 9 -11 9 -14 -1 -13 -26 2 -99 -25 -105 -39 -7 -20 -22
-18 -41 6 -19 23 -60 34 -81 21 -8 -6 -12 -20 -9 -39 4 -29 3 -30 -45 -36 -27
-3 -52 -8 -55 -10 -10 -11 21 -36 44 -36 12 0 26 -5 30 -12 5 -7 12 1 19 23
l12 34 16 -32 c21 -40 23 -81 4 -65 -18 16 -49 -22 -47 -56 3 -43 2 -44 -29
-26 -24 14 -28 21 -21 43 8 31 3 51 -13 51 -7 0 -23 9 -36 19 -23 18 -24 22
-13 58 6 22 14 73 18 115 5 69 4 77 -21 114 -24 36 -80 72 -115 73 -9 1 -23
10 -33 21 -16 19 -20 19 -51 6 -27 -11 -34 -12 -30 -2 8 21 -29 30 -43 10 -10
-14 -10 -19 4 -29 27 -20 5 -36 -48 -34 -53 3 -54 5 -50 81 1 32 -58 88 -93
88 -17 0 -23 6 -23 23 -1 61 -13 63 -44 7 -13 -22 -26 -40 -31 -40 -4 0 -15
12 -25 28 -9 15 -18 28 -19 30 -1 2 -10 5 -20 6 -26 4 -35 50 -18 92 9 21 12
48 9 68 -4 21 -2 38 7 47 21 22 68 97 68 109 0 5 6 10 14 10 20 0 66 72 66
103 0 19 -7 31 -23 38 -29 13 -43 51 -42 112 1 44 -1 49 -32 68 -19 12 -33 29
-33 40 0 14 -7 19 -25 19 -35 0 -33 29 4 64 26 25 28 31 19 57 -12 34 -9 33
-54 14 -35 -14 -37 -14 -72 15 -20 17 -38 26 -40 20 -2 -5 -17 -10 -34 -10
-41 0 -88 -35 -88 -66 0 -42 -65 -52 -114 -19 -25 18 -78 19 -94 3 -9 -9 -12
-5 -12 19 0 18 -10 41 -25 57 -29 31 -27 41 13 49 19 4 37 20 59 54 18 27 43
55 57 62 35 19 46 58 29 99 -7 17 -18 32 -23 32 -6 0 -10 10 -10 23 0 43 -13
50 -55 33 l-37 -16 14 23 c8 12 18 37 21 55 6 31 6 32 -29 32 -33 0 -36 2 -32
24 5 26 -10 39 -31 27 -8 -5 -10 -18 -5 -34 8 -34 -14 -36 -63 -6 -25 16 -32
26 -27 38 38 90 39 97 15 133 -30 44 -63 59 -102 48 -29 -9 -30 -8 -25 18 2
15 7 34 11 43 4 11 -2 23 -19 37 -14 11 -26 24 -26 30 0 5 16 27 36 48 20 22
42 51 50 66 17 33 9 85 -19 115 -16 19 -18 25 -7 38 7 8 19 15 26 15 9 0 14
12 14 37 0 20 7 45 17 55 16 18 16 19 -5 25 l-21 5 25 33 c14 18 26 42 27 53
1 25 13 20 20 -8 3 -11 2 -18 -3 -15 -12 7 -18 -39 -8 -66 19 -52 77 -82 79
-41 3 78 24 110 69 107 24 -1 34 5 49 29 34 57 35 73 4 83 -42 14 -56 6 -75
-38 -15 -36 -19 -39 -37 -29 -12 6 -20 14 -19 18 1 4 -4 20 -10 35 -18 44 -16
51 38 107 39 40 50 59 50 84 0 51 -26 59 -197 65 -12 1 -26 9 -32 18 -5 9 -26
22 -48 28 -29 8 -38 16 -36 31 9 86 12 79 -32 79 -34 0 -41 4 -47 25 -6 24 -7
23 -6 -5 1 -71 -9 -73 -44 -9 -23 42 -27 44 -32 26 -4 -13 0 -36 10 -57 13
-29 20 -34 37 -29 19 6 17 2 -8 -27 -25 -29 -31 -32 -33 -17 -2 10 -6 18 -10
19 -4 0 -18 2 -32 4 -14 1 -33 -4 -42 -13 -16 -13 -18 -13 -24 1 -10 27 0 52
22 55 24 3 44 40 44 81 0 25 13 37 40 38 3 0 23 9 45 20 22 11 55 24 73 28 23
5 41 19 60 48 24 36 27 48 23 111 -1 39 -4 87 -5 106 -1 31 -4 35 -41 44 -42
10 -68 34 -84 79 -9 25 -7 29 30 53 50 31 64 61 53 111 -4 21 -8 43 -7 49 0 6
-13 19 -28 30 -33 22 -35 31 -14 54 11 12 13 24 7 40 -12 31 7 68 38 75 84 20
99 27 105 45 5 17 10 18 27 9 22 -12 88 -19 211 -23 63 -1 77 1 78 14 1 8 2
29 3 47 1 39 16 55 53 59 32 3 73 48 73 81 0 12 4 24 10 28 5 3 7 12 4 20 -3
8 3 28 13 45 14 24 23 30 38 25 63 -21 92 5 57 50 -12 15 -22 39 -23 54 0 14
-10 46 -22 70 -17 34 -31 47 -60 57 -28 10 -45 11 -58 3 -26 -13 -39 -4 -33
26 2 13 0 26 -5 30 -6 3 -8 12 -4 20 3 8 1 15 -5 15 -5 0 -12 14 -16 30 -4 21
-14 34 -32 40 l-27 10 36 28 c38 29 51 63 33 84 -15 17 24 -12 47 -34 10 -10
28 -18 40 -19 12 0 31 -3 42 -5 138 -32 175 -28 175 15 0 10 9 27 20 39 25 26
26 65 3 88 -17 17 -17 17 5 12 24 -7 82 9 82 21 0 4 -14 29 -32 57 -22 34 -32
63 -33 95 -2 44 -1 46 24 42 52 -6 86 6 105 39 30 50 28 92 -6 114 -35 24 -31
37 11 40 39 3 61 20 61 47 0 39 28 46 97 27 59 -16 64 -16 91 1 16 9 38 35 48
58 22 46 45 52 69 19 l16 -23 16 23 c15 21 17 22 34 6 17 -15 19 -15 25 0 3 9
4 22 1 30 -8 20 39 44 55 28 7 -7 25 -12 40 -12 43 0 34 -24 -22 -54 -52 -29
-64 -46 -30 -46 11 0 23 0 28 -1 4 0 25 -10 47 -23 22 -12 47 -22 55 -21 8 1
21 -4 29 -9 12 -9 12 -7 2 12 -6 12 -7 22 -2 22 5 0 16 3 25 6 12 5 16 0 16
-20 0 -17 5 -26 16 -26 11 0 14 5 9 18 -4 9 -7 24 -8 32 0 27 -18 40 -49 35
-33 -6 -33 -7 15 63 22 33 28 52 25 77 -4 34 5 45 37 45 10 0 11 -9 5 -37 -10
-41 -6 -53 16 -53 8 0 35 -11 59 -24 40 -23 44 -23 58 -8 26 31 27 73 2 106
-12 17 -26 42 -30 56 -4 14 -14 33 -23 42 -12 14 -12 21 -3 32 7 8 10 20 6 26
-4 6 -2 17 5 25 9 10 7 16 -7 24 -16 9 -16 12 -3 21 8 5 30 10 48 10 32 0 32
1 32 48 l0 47 -49 3 c-96 6 -112 13 -94 41 10 15 6 24 -22 52 -41 41 -42 47
-9 59 19 8 29 6 41 -6 18 -17 73 -10 86 12 6 10 14 9 42 -7 19 -12 32 -25 29
-30 -3 -5 3 -12 13 -16 10 -4 32 -17 50 -31 24 -18 39 -22 61 -18 21 5 33 2
46 -13 22 -24 40 -19 126 40 68 46 77 60 63 92 -7 16 -4 35 15 79 27 62 36 65
89 32 37 -23 86 -18 115 14 15 15 29 38 33 52 11 45 31 63 65 58 26 -4 34 -1
42 18 15 32 53 23 94 -22 17 -19 44 -37 61 -40 25 -5 30 -11 30 -35 0 -18 12
-44 31 -68 18 -22 32 -47 32 -55 0 -9 14 -43 32 -76 l31 -60 22 20 c12 11 24
18 27 14 4 -3 16 0 28 6 19 10 29 8 67 -19 51 -36 66 -38 116 -12 20 10 37 14
37 9 0 -6 7 -5 15 2 12 10 21 10 41 1 14 -6 22 -15 19 -21 -7 -12 13 -90 24
-90 4 0 17 17 29 38 25 45 77 102 92 102 6 0 9 17 8 43 -2 31 0 41 11 39 11
-2 12 6 7 39 -8 52 -14 62 -32 55 -26 -10 4 33 39 56 18 11 41 38 52 60 l18
38 49 -6 c45 -6 50 -5 55 15 7 25 12 23 18 -9z m968 -1 c7 -27 -15 -29 -42 -3
l-24 23 31 -1 c20 -1 32 -7 35 -19z m4907 -59 c0 -4 -8 -10 -17 -13 -10 -2
-26 -8 -37 -12 -18 -8 -18 -7 -1 18 9 15 14 27 11 27 -4 0 -4 5 -1 11 7 10 45
-16 45 -31z m-12090 -11 c0 -6 -4 -7 -10 -4 -5 3 -10 11 -10 16 0 6 5 7 10 4
6 -3 10 -11 10 -16z m12135 -155 c23 -9 18 -21 -10 -26 -23 -5 -25 -3 -24 36
0 35 2 38 9 18 5 -12 16 -25 25 -28z m-4630 -64 c3 -5 1 -10 -4 -10 -6 0 -11
5 -11 10 0 6 2 10 4 10 3 0 8 -4 11 -10z m19 -326 c20 -8 21 -34 2 -34 -17 0
-38 24 -29 33 8 8 8 8 27 1z m-3584 -14 c0 -5 -2 -10 -4 -10 -3 0 -8 5 -11 10
-3 6 -1 10 4 10 6 0 11 -4 11 -10z m-405 -140 c-3 -5 -16 -10 -28 -10 -18 0
-19 2 -7 10 20 13 43 13 35 0z m8568 -719 c38 -29 38 -30 10 -26 -15 2 -31 4
-35 4 -13 2 -49 61 -43 72 5 7 11 5 18 -5 7 -8 29 -28 50 -45z m-8773 -2 c0
-4 -7 -6 -15 -3 -8 4 -15 10 -15 15 0 4 7 6 15 3 8 -4 15 -10 15 -15z m5480
-23 c0 -3 -4 -8 -10 -11 -5 -3 -10 -1 -10 4 0 6 5 11 10 11 6 0 10 -2 10 -4z
m-8720 -518 c0 -3 -12 -20 -26 -37 -22 -27 -24 -35 -16 -60 11 -32 7 -41 -18
-41 -16 0 -16 5 -8 47 10 43 9 48 -13 65 -13 10 -34 21 -46 24 -13 3 -23 12
-23 20 0 7 6 11 13 9 6 -3 32 1 57 9 43 13 46 13 62 -8 10 -11 18 -24 18 -28z
m-588 -169 c7 -43 -4 -35 -30 23 l-23 52 25 -23 c13 -12 26 -36 28 -52z m-260
-171 c-7 -7 -12 -8 -12 -2 0 14 12 26 19 19 2 -3 -1 -11 -7 -17z m1428 -44 c0
-6 -11 -14 -25 -16 -26 -6 -32 1 -15 18 15 15 40 13 40 -2z m9008 -375 c-18
-11 -28 -1 -28 29 l1 27 20 -24 c15 -18 17 -26 7 -32z m4200 -254 c7 -14 12
-40 12 -58 0 -28 -2 -30 -15 -16 -16 16 -29 99 -16 99 4 0 13 -11 19 -25z
m-4294 -170 c-7 -16 -24 -21 -24 -6 0 8 7 13 27 20 1 1 0 -6 -3 -14z m4389
-37 c-29 -11 -30 -10 -35 21 l-4 29 28 -21 c26 -19 27 -22 11 -29z m-15175
-28 c-7 -11 -15 -20 -18 -20 -3 0 -6 9 -7 20 -1 14 4 20 18 20 17 0 18 -3 7
-20z m15232 -15 c24 0 36 -117 14 -136 -8 -6 -14 -18 -14 -25 0 -21 -24 -17
-47 9 -17 17 -20 31 -16 62 3 25 -1 51 -11 70 -16 30 -16 30 17 41 27 9 33 8
38 -5 3 -9 12 -16 19 -16z m220 -56 c0 -6 -4 -7 -10 -4 -5 3 -10 11 -10 16 0
6 5 7 10 4 6 -3 10 -11 10 -16z m-360 -84 c6 -3 8 -11 4 -16 -10 -17 -44 28
-43 58 l1 28 14 -32 c7 -17 18 -34 24 -38z m473 -16 c-16 -31 -33 -49 -49 -53
-32 -8 -100 10 -108 29 -8 23 30 19 55 -6 20 -20 21 -20 34 -2 8 10 15 32 15
49 0 30 2 31 39 30 l39 -1 -25 -46z m-15552 -16 c13 -16 12 -17 -3 -4 -10 7
-18 15 -18 17 0 8 8 3 21 -13z m-1008 -153 c15 -31 15 -35 1 -38 -22 -5 -78
59 -62 70 23 14 43 4 61 -32z m-122 -13 c-10 -9 -11 -8 -5 6 3 10 9 15 12 12
3 -3 0 -11 -7 -18z m15552 9 c9 -7 17 -16 17 -20 0 -13 -28 -5 -45 14 -21 24
-1 28 28 6z m-15197 -39 c4 -12 7 -34 6 -49 -1 -16 5 -44 13 -64 13 -32 13
-35 0 -24 -15 13 -16 11 -27 -28 -2 -8 -14 -3 -37 16 -31 26 -34 33 -35 86 -1
49 3 61 22 76 27 22 48 17 58 -13z m125 -4 c13 -15 12 -15 -8 -4 -24 12 -29
21 -14 21 5 0 15 -7 22 -17z m-501 -5 c0 -25 -18 -44 -30 -32 -8 8 -7 16 5 28
20 19 25 20 25 4z m5099 -7 c12 -8 12 -12 2 -25 -16 -20 -53 -4 -45 19 7 17
22 19 43 6z m-4589 -32 c0 -11 -4 -18 -10 -14 -5 3 -7 12 -3 20 7 21 13 19 13
-6z m15068 -71 c0 -13 3 -33 7 -46 7 -21 6 -22 -17 -11 -24 10 -25 14 -15 45
12 39 25 45 25 12z m-15094 -195 c14 -29 19 -53 17 -87 -2 -34 -31 3 -31 41 0
19 -5 43 -10 54 -7 13 -7 19 -1 19 6 0 17 -12 25 -27z m4226 -331 c0 -5 -7
-17 -15 -28 -14 -19 -14 -19 -15 2 0 11 3 24 7 27 9 10 23 9 23 -1z m9030
-361 c0 -5 -6 -13 -13 -19 -15 -12 -57 -5 -57 10 0 5 4 7 8 4 4 -2 14 -1 22 5
19 11 40 12 40 0z m1158 -273 c18 -20 21 -28 11 -28 -17 0 -59 52 -59 73 0 25
15 29 18 5 2 -12 15 -35 30 -50z m-557 26 c8 -10 8 -22 0 -45 -6 -18 -11 -47
-11 -64 0 -36 13 -45 60 -45 54 0 39 -17 -25 -29 -56 -10 -68 -9 -90 5 l-24
16 28 24 c25 21 28 28 22 57 -5 17 -15 46 -24 64 -12 23 -13 33 -5 35 19 7 56
-3 69 -18z m-2831 -34 c-20 -13 -33 -13 -25 0 3 6 14 10 23 10 15 0 15 -2 2
-10z m-9221 -656 c17 -14 28 -30 25 -36 -4 -5 -18 2 -33 16 -15 14 -32 26 -39
26 -7 0 -12 5 -12 10 0 18 28 11 59 -16z m-132 -306 c-3 -8 -6 -5 -6 6 -1 11
2 17 5 13 3 -3 4 -12 1 -19z m8173 -306 l25 -12 -25 7 c-14 3 -33 6 -42 5 -10
0 -18 3 -18 8 0 11 23 19 30 11 3 -4 16 -12 30 -19z m-207 -86 c12 -9 14 -16
7 -21 -12 -7 -40 11 -40 26 0 13 12 11 33 -5z m741 -18 c-9 -30 -9 -31 -33
-23 -23 7 -18 31 7 38 31 8 33 7 26 -15z m-2104 -393 c0 -13 -4 -14 -20 -5
-11 6 -20 13 -20 15 0 3 9 5 20 5 11 0 20 -7 20 -15z m-6520 -156 c0 -18 -2
-19 -15 -9 -8 7 -15 16 -15 21 0 5 7 9 15 9 9 0 15 -9 15 -21z m12180 -161 c0
-7 -5 -20 -10 -28 -9 -13 -11 -13 -20 0 -7 11 -5 19 7 28 9 6 18 12 20 12 2 0
3 -6 3 -12z m-7206 -75 c8 -19 -18 -5 -32 17 -11 19 -11 19 8 8 11 -7 22 -18
24 -25z m7954 -10 c-8 -10 -6 -13 9 -13 31 0 33 -10 11 -54 -24 -48 -54 -76
-80 -76 -23 0 -23 24 1 64 11 17 22 45 25 61 2 17 5 31 5 32 1 1 10 1 20 0 15
-1 17 -4 9 -14z m-875 -73 c-6 -22 -18 -26 -28 -10 -8 13 3 30 20 30 8 0 11
-7 8 -20z m1024 -133 l-25 -33 39 -22 c28 -16 39 -19 39 -9 0 27 22 37 45 19
l22 -17 -22 -17 c-20 -16 -64 -21 -75 -8 -3 3 -16 14 -29 25 l-24 20 7 -22 c6
-20 4 -23 -18 -23 -32 0 -36 8 -20 46 13 32 72 89 82 80 2 -3 -7 -20 -21 -39z
m-14047 -71 c0 -11 -19 -15 -25 -6 -3 5 1 10 9 10 9 0 16 -2 16 -4z m-240 -63
c0 -10 -20 -40 -20 -31 0 3 -3 13 -6 22 -4 11 -1 16 10 16 9 0 16 -3 16 -7z
m14411 -100 c-12 -20 -14 -14 -5 12 4 9 9 14 11 11 3 -2 0 -13 -6 -23z
m-13634 -21 c3 -9 19 -31 35 -48 19 -20 26 -34 19 -38 -6 -4 -11 -3 -11 2 0 6
-9 8 -20 5 -11 -3 -17 -9 -14 -14 3 -5 1 -9 -4 -9 -4 0 -19 14 -32 32 -18 25
-21 35 -12 49 8 12 8 20 2 24 -6 3 -10 13 -10 21 0 20 39 0 47 -24z m-191 -89
c-5 -12 -10 -11 -33 1 -58 31 -59 33 -40 54 18 19 18 19 48 -11 17 -16 28 -36
25 -44z m3087 37 c-7 -27 -20 -34 -27 -14 -7 19 1 34 19 34 8 0 11 -7 8 -20z
m-3207 -97 c-11 -11 -17 4 -9 23 7 18 8 18 11 1 2 -10 1 -21 -2 -24z m11690
-38 c-16 -45 -23 -51 -31 -26 -7 24 10 61 29 61 11 0 11 -6 2 -35z m2278 -129
c-10 -8 -21 -12 -24 -10 -5 6 21 24 34 24 6 0 1 -6 -10 -14z m-11394 -28 c0
-6 12 -27 26 -45 21 -27 32 -34 51 -30 18 3 23 1 19 -10 -3 -8 -6 -24 -6 -36
0 -19 -2 -19 -32 9 -18 17 -45 38 -59 46 -25 16 -26 15 -43 -17 -29 -54 -70
-61 -43 -8 8 15 17 41 21 58 4 16 12 32 16 35 17 10 50 9 50 -2z m-110 -602
c0 -5 -105 6 -110 11 -2 2 2 8 9 12 11 7 101 -14 101 -23z m6100 -220 c0 -2 3
-11 6 -20 9 -23 -13 -20 -26 4 -9 16 -8 20 5 20 8 0 15 -2 15 -4z m61 -645
c-8 -15 -5 -20 17 -30 l26 -13 -52 -17 c-29 -10 -54 -20 -55 -22 -1 -2 -8 -12
-15 -21 -11 -14 -10 -21 3 -42 31 -47 10 -44 -34 6 -40 45 -43 51 -32 75 8 18
15 23 22 16 13 -13 79 0 91 19 5 7 13 21 19 31 13 23 22 22 10 -2z m-5597
-280 c17 -19 17 -19 -1 -16 -10 2 -26 4 -37 4 -15 1 -16 4 -6 16 16 20 23 19
44 -4z m166 -85 c0 -2 -7 -6 -15 -10 -8 -3 -15 -1 -15 4 0 6 7 10 15 10 8 0
15 -2 15 -4z m2445 -76 c-3 -5 -14 -10 -23 -10 -10 0 -28 -7 -40 -16 -13 -9
-26 -14 -29 -11 -8 8 59 47 80 47 10 0 15 -4 12 -10z m3304 -42 c-7 -13 -20
-34 -30 -47 -19 -24 -19 -24 -19 -2 0 12 12 33 26 46 33 31 38 31 23 3z m1310
-68 c-37 -31 -39 -31 -43 -3 -3 18 15 27 58 30 15 2 11 -5 -15 -27z m-4624
-49 c-3 -6 -14 -11 -23 -11 -15 1 -15 2 2 15 21 16 32 13 21 -4z m5598 -121
c-9 -16 -21 -30 -25 -30 -4 0 -16 -10 -28 -22 -25 -28 -38 -16 -19 19 13 24
63 63 82 63 5 0 0 -13 -10 -30z m-137 -166 c-11 -8 -27 -14 -35 -14 -10 0 -4
8 14 20 33 21 51 17 21 -6z m-21 -49 c52 0 15 -86 -50 -116 -41 -18 -95 -14
-95 9 0 19 102 120 115 113 6 -3 19 -6 30 -6z m-8005 -90 c7 -9 8 -15 2 -15
-5 0 -12 7 -16 15 -3 8 -4 15 -2 15 2 0 9 -7 16 -15z m3792 -105 c3 -18 0 -29
-5 -27 -11 3 -17 57 -6 57 4 0 9 -14 11 -30z m-3848 -9 c10 -9 27 -17 37 -17
37 -3 39 -4 39 -24 0 -15 -7 -20 -25 -20 -28 0 -29 -3 -15 -31 14 -24 10 -24
-56 6 -48 22 -54 28 -54 56 0 26 3 29 20 24 12 -4 20 -2 20 6 0 8 -11 10 -32
5 -30 -5 -31 -4 -15 8 21 16 54 11 81 -13z m3681 22 c-11 -3 -26 -10 -32 -15
-10 -8 -13 -6 -13 6 0 12 9 16 33 15 21 -1 25 -3 12 -6z m4480 -51 c-5 -4 -15
-16 -21 -26 -6 -11 -16 -22 -24 -24 -8 -3 -4 8 9 27 12 17 28 31 34 31 8 0 8
-3 2 -8z m-8010 -22 c3 -5 1 -10 -4 -10 -6 0 -11 5 -11 10 0 6 2 10 4 10 3 0
8 -4 11 -10z m211 -17 c22 -14 23 -18 10 -25 -10 -6 -29 -2 -55 12 -22 11 -51
20 -63 20 -19 0 -20 2 -8 11 20 13 85 3 116 -18z m7678 -9 c13 -5 13 -10 -4
-42 -11 -20 -20 -43 -20 -50 0 -24 -26 10 -32 41 -8 41 19 65 56 51z m-8230
-80 c22 -8 21 -44 -1 -44 -10 0 -28 -3 -40 -6 -18 -5 -23 -2 -23 13 0 34 28
51 64 37z m8356 -50 c0 -13 -37 -1 -48 16 -20 33 -3 44 24 15 13 -14 24 -28
24 -31z m-8263 -40 c-3 -3 -12 -4 -19 -1 -8 3 -5 6 6 6 11 1 17 -2 13 -5z
m4173 -348 c0 -2 -9 -6 -20 -9 -11 -3 -18 -1 -14 4 5 9 34 13 34 5z m90 -116
c-7 -4 -11 -10 -11 -14 3 -20 -3 -25 -40 -34 -40 -10 -42 -10 -52 19 -8 21
-16 27 -29 23 -13 -4 -16 -1 -12 10 5 12 16 14 49 9 23 -3 51 -1 61 5 22 12
54 -6 34 -18z m-130 -199 c0 -5 -14 -21 -32 -36 -29 -24 -32 -25 -41 -9 -8 13
-5 22 13 36 23 19 60 24 60 9z m69 -30 c7 -5 9 -11 4 -14 -6 -4 -19 0 -29 8
-15 11 -16 14 -4 15 8 0 21 -4 29 -9z m-91 -81 c16 -1 16 -1 0 -10 -18 -11
-48 -3 -48 12 0 6 7 7 16 4 9 -3 23 -6 32 -6z m61 -34 c23 -25 23 -25 2 -19
-12 3 -19 8 -16 11 2 3 0 11 -6 19 -19 23 -4 14 20 -11z m-489 -287 c0 -4 -7
-6 -15 -3 -8 4 -15 10 -15 15 0 4 7 6 15 3 8 -4 15 -10 15 -15z"/>
<path d="M8331 13123 c-10 -26 -10 -27 4 -9 8 11 15 23 15 28 0 15 -7 8 -19
-19z"/>
<path d="M11088 13066 c-28 -21 -21 -36 18 -36 31 0 35 3 32 22 -4 27 -26 33
-50 14z"/>
<path d="M7860 12471 c0 -38 8 -43 42 -25 27 14 35 35 13 36 -6 0 -20 4 -32 9
-21 8 -23 5 -23 -20z"/>
<path d="M7060 11819 c1 -19 7 -47 15 -64 9 -18 13 -21 9 -8 -2 12 -6 38 -8
58 -5 48 -16 58 -16 14z"/>
<path d="M7150 11824 c0 -8 5 -12 10 -9 6 4 8 11 5 16 -9 14 -15 11 -15 -7z"/>
<path d="M13141 11141 c-23 -15 3 -20 29 -5 22 12 23 13 5 13 -11 1 -26 -3
-34 -8z"/>
<path d="M6567 10605 c-4 -8 -2 -17 3 -20 6 -4 10 3 10 14 0 25 -6 27 -13 6z"/>
<path d="M13188 10565 c-8 -37 14 -50 51 -30 17 8 31 18 31 21 0 4 -63 34 -74
34 -2 0 -6 -11 -8 -25z"/>
<path d="M6670 10210 c0 -5 5 -10 11 -10 5 0 7 5 4 10 -3 6 -8 10 -11 10 -2 0
-4 -4 -4 -10z"/>
<path d="M6676 10085 c-16 -12 -17 -18 -6 -44 16 -40 60 -54 60 -19 0 6 -3 8
-7 4 -5 -4 -12 10 -18 33 -9 37 -11 39 -29 26z"/>
<path d="M6910 9510 c0 -5 5 -10 11 -10 5 0 7 5 4 10 -3 6 -8 10 -11 10 -2 0
-4 -4 -4 -10z"/>
<path d="M6765 9399 c-5 -22 -3 -34 6 -40 18 -11 21 -11 43 6 19 15 19 15 -4
40 -30 32 -37 32 -45 -6z"/>
<path d="M13410 9328 c0 -11 32 -10 50 2 11 8 7 10 -17 8 -18 -1 -33 -6 -33
-10z"/>
<path d="M6971 8453 c-7 -15 -5 -27 9 -51 26 -43 33 -40 27 9 -6 51 -21 69
-36 42z"/>
<path d="M6930 8379 c0 -11 -4 -18 -9 -15 -5 3 -11 -3 -14 -14 -3 -11 -1 -20
4 -20 5 0 9 4 9 9 0 5 22 1 50 -10 49 -18 50 -18 60 0 15 28 13 34 -10 28 -11
-3 -23 0 -28 6 -7 12 -47 37 -57 37 -3 0 -5 -9 -5 -21z"/>
<path d="M12866 8173 c-10 -10 -7 -21 8 -26 8 -3 17 0 20 8 5 14 -17 28 -28
18z"/>
<path d="M7482 8067 c-29 -31 -28 -37 6 -31 37 7 45 17 29 38 -12 16 -14 16
-35 -7z"/>
<path d="M12585 7821 c-7 -23 10 -45 27 -35 11 7 10 18 -6 39 -13 18 -14 18
-21 -4z"/>
<path d="M11917 7584 c-4 -4 -7 -23 -7 -41 0 -27 4 -34 18 -31 9 2 18 12 20
23 3 23 -20 60 -31 49z"/>
<path d="M7435 7540 c3 -5 8 -10 11 -10 2 0 4 5 4 10 0 6 -5 10 -11 10 -5 0
-7 -4 -4 -10z"/>
<path d="M12102 7518 c-21 -21 -14 -66 9 -73 24 -8 39 8 39 42 0 27 -32 47
-48 31z"/>
<path d="M7425 7460 c-3 -5 -1 -10 4 -10 6 0 11 5 11 10 0 6 -2 10 -4 10 -3 0
-8 -4 -11 -10z"/>
<path d="M8130 7204 c0 -8 5 -12 10 -9 6 4 8 11 5 16 -9 14 -15 11 -15 -7z"/>
<path d="M8225 7153 c-6 -18 9 -32 40 -34 11 -1 27 -3 35 -3 13 -1 39 27 40
44 0 3 -24 6 -54 7 -42 1 -56 -2 -61 -14z"/>
<path d="M8848 7102 c-4 -12 0 -26 8 -33 16 -13 18 2 5 35 -7 19 -8 19 -13 -2z"/>
<path d="M11617 7093 c-4 -3 -7 -17 -7 -30 0 -12 -6 -23 -13 -23 -7 0 -22 -7
-33 -16 -18 -15 -18 -15 3 -4 12 5 27 9 33 8 6 -2 17 14 24 35 13 34 9 47 -7
30z"/>
<path d="M8036 7072 c-3 -5 4 -21 15 -38 19 -29 24 -19 13 24 -6 22 -19 29
-28 14z"/>
<path d="M8055 6930 c-3 -5 -1 -10 4 -10 6 0 11 5 11 10 0 6 -2 10 -4 10 -3 0
-8 -4 -11 -10z"/>
<path d="M8886 6928 c-15 -49 -14 -59 7 -68 29 -11 45 10 39 50 -3 21 -10 30
-23 30 -11 0 -21 -6 -23 -12z"/>
<path d="M11628 6804 c-33 -18 -28 -48 6 -38 29 9 50 30 42 43 -9 13 -14 13
-48 -5z"/>
<path d="M11148 6698 c-7 -19 2 -38 17 -38 18 0 28 32 13 42 -18 11 -25 10
-30 -4z"/>
<path d="M9810 6585 c-10 -12 -9 -15 6 -16 39 -2 69 3 81 14 10 10 3 13 -31
14 -29 2 -48 -3 -56 -12z"/>
<path d="M10795 6560 c-3 -5 1 -10 9 -10 9 0 16 5 16 10 0 6 -4 10 -9 10 -6 0
-13 -4 -16 -10z"/>
<path d="M10905 6562 c-36 -7 -36 -18 0 -29 26 -8 35 -8 35 0 0 21 -15 33 -35
29z"/>
<path d="M9925 6555 c-5 -2 -29 -9 -53 -15 -45 -12 -48 -24 -7 -34 18 -5 34 0
55 16 38 28 41 46 5 33z"/>
<path d="M9868 6483 c7 -3 16 -2 19 1 4 3 -2 6 -13 5 -11 0 -14 -3 -6 -6z"/>
<path d="M2002 9851 c4 -13 18 -16 19 -4 0 4 -5 9 -11 12 -7 2 -11 -2 -8 -8z"/>
<path d="M14100 3106 c0 -8 5 -18 10 -21 6 -3 10 1 10 9 0 8 -4 18 -10 21 -5
3 -10 -1 -10 -9z"/>
<path d="M10285 2270 c-3 -5 -1 -10 4 -10 6 0 11 5 11 10 0 6 -2 10 -4 10 -3
0 -8 -4 -11 -10z"/>
<path d="M5944 17812 c-7 -4 -17 -33 -25 -65 -11 -52 -11 -61 5 -88 20 -33 15
-49 -8 -30 -8 7 -19 10 -24 7 -6 -3 -24 -1 -42 5 -52 19 -58 -12 -25 -116 8
-26 10 -48 4 -63 -15 -39 -10 -52 25 -69 32 -15 35 -15 64 6 16 11 33 33 36
47 4 15 18 43 32 63 28 42 34 111 9 111 -13 0 -14 4 -5 20 6 11 14 20 18 20 5
0 18 -9 30 -20 25 -23 60 -26 87 -6 16 12 21 11 35 -6 16 -20 17 -20 43 12 15
17 27 42 27 55 0 18 -7 24 -37 30 -48 9 -123 44 -123 58 0 6 -3 8 -6 4 -3 -3
-19 -1 -35 5 -22 8 -33 7 -45 -3 -13 -11 -15 -10 -12 6 3 20 -11 29 -28 17z"/>
<path d="M6121 17786 l-22 -24 27 -6 c18 -5 32 -2 41 7 12 11 11 16 -5 30 -17
16 -20 16 -41 -7z"/>
<path d="M14474 17385 c-39 -36 -69 -55 -89 -57 -30 -3 -33 -10 -26 -75 2 -20
71 -33 163 -30 107 3 119 12 89 63 -26 44 -23 50 10 21 28 -25 45 -55 48 -91
2 -26 88 -110 113 -110 38 0 48 11 38 44 -5 17 -7 30 -4 30 2 0 -3 11 -12 25
-10 15 -12 25 -5 25 6 0 11 -4 11 -9 0 -5 14 -4 30 2 33 13 39 24 13 24 -43 0
-53 4 -53 21 0 34 -22 94 -41 113 -22 22 -56 20 -117 -7 -36 -17 -56 -9 -67
27 -4 10 -14 23 -24 29 -15 7 -30 -1 -77 -45z"/>
<path d="M8312 16901 c-11 -6 -10 -10 4 -15 10 -4 24 0 33 9 14 13 13 15 -4
15 -11 0 -26 -4 -33 -9z"/>
<path d="M7921 16601 c-10 -7 -11 -16 -4 -37 14 -43 34 -43 30 0 -4 42 -8 48
-26 37z"/>
<path d="M11356 16522 c-10 -17 4 -62 20 -62 17 0 17 18 0 49 -8 14 -16 19
-20 13z"/>
<path d="M5207 14892 c-23 -25 -21 -32 7 -32 31 0 43 18 24 36 -12 13 -17 12
-31 -4z"/>
<path d="M15167 14866 c-3 -8 -2 -18 3 -21 13 -8 24 15 12 27 -6 6 -11 4 -15
-6z"/>
<path d="M2654 14699 c-3 -6 -1 -16 5 -22 9 -9 14 -8 21 3 9 15 4 30 -10 30
-5 0 -12 -5 -16 -11z"/>
<path d="M2966 14619 c5 -55 -21 -113 -48 -106 -12 4 -32 -6 -53 -25 l-35 -30
-11 26 c-7 14 -16 26 -21 26 -12 0 -10 -78 2 -85 6 -3 10 -17 10 -29 0 -27 34
-74 64 -87 17 -8 14 -9 -12 -4 -27 4 -37 0 -57 -23 -22 -26 -23 -28 -7 -55 10
-16 33 -43 52 -60 19 -16 36 -42 38 -56 2 -14 5 -28 8 -30 20 -20 93 8 95 37
2 22 2 43 -3 126 -4 61 -8 72 -32 91 -34 27 -27 45 13 39 21 -4 36 3 61 26 36
34 41 35 58 18 15 -15 19 -10 26 26 10 54 -42 108 -88 90 -12 -5 -16 0 -16 20
0 24 -34 106 -44 106 -2 0 -2 -19 0 -41z"/>
<path d="M5021 14438 c-12 -19 -11 -23 10 -39 24 -18 24 -18 32 7 6 16 5 30
-3 39 -17 20 -23 19 -39 -7z"/>
<path d="M17358 13983 c-25 -6 -31 -38 -13 -72 14 -28 14 -33 -1 -56 -17 -26
-13 -87 8 -112 8 -10 6 -13 -6 -13 -9 0 -16 -8 -16 -19 0 -16 9 -20 51 -23 28
-1 54 1 57 6 3 6 6 28 7 50 1 23 11 57 22 76 20 35 24 95 10 136 -10 28 -67
41 -119 27z"/>
<path d="M17123 13843 c-31 -21 -29 -28 11 -29 37 -1 58 22 34 38 -17 10 -19
10 -45 -9z"/>
<path d="M17475 13789 c-7 -20 6 -38 28 -39 13 0 8 37 -7 49 -12 10 -16 8 -21
-10z"/>
<path d="M16307 12064 c-3 -3 -3 -12 0 -20 4 -10 10 -11 25 -3 17 9 18 13 7
20 -17 10 -24 11 -32 3z"/>
<path d="M16659 11690 c-3 -8 -1 -31 4 -50 13 -44 22 -15 9 31 -5 21 -10 28
-13 19z"/>
<path d="M17226 11631 c-4 -7 -5 -15 -2 -18 9 -9 19 4 14 18 -4 11 -6 11 -12
0z"/>
<path d="M942 10531 c-11 -6 -8 -14 12 -37 l25 -29 -2 34 c-3 36 -13 46 -35
32z"/>
<path d="M2130 10513 c0 -13 5 -23 10 -23 13 0 13 11 0 30 -8 12 -10 11 -10
-7z"/>
<path d="M1172 10458 c2 -6 10 -14 16 -16 7 -2 10 2 6 12 -7 18 -28 22 -22 4z"/>
<path d="M1120 10274 c0 -8 5 -12 10 -9 6 3 10 10 10 16 0 5 -4 9 -10 9 -5 0
-10 -7 -10 -16z"/>
<path d="M1320 10028 c0 -12 38 -10 45 2 4 6 -5 9 -19 8 -15 -1 -26 -6 -26
-10z"/>
<path d="M18669 9653 c-6 -16 -12 -40 -12 -55 0 -21 -7 -30 -28 -37 -23 -8
-30 -18 -35 -51 -4 -23 -13 -47 -21 -53 -51 -43 -51 -43 -10 -51 15 -2 35 -12
44 -22 16 -16 19 -15 45 17 15 18 28 37 28 41 0 4 7 8 16 8 9 0 40 25 70 56
30 31 54 53 54 48 0 -5 4 -3 9 5 11 17 3 41 -13 41 -6 0 -17 9 -24 20 -12 19
-81 60 -102 60 -6 0 -15 -12 -21 -27z"/>
<path d="M18694 9429 c-18 -20 -18 -21 1 -35 10 -8 22 -14 26 -14 13 0 16 37
4 53 -11 15 -14 15 -31 -4z"/>
<path d="M16743 8486 c0 -23 5 -37 15 -41 22 -8 31 13 19 46 -15 39 -33 37
-34 -5z"/>
<path d="M16816 7971 c-7 -11 3 -41 14 -41 11 0 21 30 14 41 -3 5 -9 9 -14 9
-5 0 -11 -4 -14 -9z"/>
<path d="M3520 6510 c0 -5 5 -10 11 -10 5 0 7 5 4 10 -3 6 -8 10 -11 10 -2 0
-4 -4 -4 -10z"/>
<path d="M3238 6493 c7 -3 16 -2 19 1 4 3 -2 6 -13 5 -11 0 -14 -3 -6 -6z"/>
<path d="M2590 6478 c0 -8 6 -23 14 -33 13 -18 14 -18 9 8 -6 29 -23 48 -23
25z"/>
<path d="M2453 6137 c-13 -17 -10 -70 4 -74 9 -3 33 45 33 67 0 14 -28 19 -37
7z"/>
<path d="M2250 5986 c0 -9 5 -16 10 -16 6 0 10 4 10 9 0 6 -4 13 -10 16 -5 3
-10 -1 -10 -9z"/>
<path d="M2490 5891 c0 -11 5 -23 10 -26 6 -3 10 -2 10 4 0 5 3 16 6 25 4 11
1 16 -10 16 -9 0 -16 -8 -16 -19z"/>
<path d="M2797 5804 c-8 -8 1 -24 14 -24 5 0 9 7 9 15 0 15 -12 20 -23 9z"/>
<path d="M17020 5405 l-23 -24 28 -7 c20 -5 32 -1 46 13 20 19 20 19 -4 30
-21 10 -28 8 -47 -12z"/>
<path d="M17111 5379 c-19 -6 -30 -14 -25 -19 12 -11 87 2 86 15 -1 14 -21 15
-61 4z"/>
<path d="M4146 5175 c-3 -10 -2 -23 4 -29 15 -15 24 1 13 26 -9 20 -10 20 -17
3z"/>
<path d="M4811 5054 c0 -11 3 -14 6 -6 3 7 2 16 -1 19 -3 4 -6 -2 -5 -13z"/>
<path d="M5303 4881 l-22 -18 37 -27 c33 -24 37 -24 44 -8 12 30 8 60 -8 66
-22 9 -26 8 -51 -13z"/>
<path d="M15034 4570 c-30 -12 -39 -29 -19 -36 19 -8 97 25 89 37 -7 11 -42
10 -70 -1z"/>
<path d="M14850 3570 c0 -5 5 -10 10 -10 6 0 10 5 10 10 0 6 -4 10 -10 10 -5
0 -10 -4 -10 -10z"/>
<path d="M8112 3394 c-46 -23 -45 -31 1 -47 l44 -15 1 33 c1 38 -13 47 -46 29z"/>
<path d="M5630 3375 c0 -8 4 -15 8 -15 5 0 9 7 9 15 0 8 -4 15 -9 15 -4 0 -8
-7 -8 -15z"/>
<path d="M5490 3243 c0 -5 5 -15 10 -23 8 -12 10 -11 10 8 0 12 -4 22 -10 22
-5 0 -10 -3 -10 -7z"/>
<path d="M11637 3074 c-9 -10 12 -46 23 -39 6 3 15 15 20 26 9 16 7 19 -13 19
-13 0 -27 -3 -30 -6z"/>
<path d="M7803 2906 c-28 -13 -30 -26 -4 -26 11 0 26 -3 35 -6 12 -5 16 0 16
20 0 28 -11 31 -47 12z"/>
<path d="M5142 2618 c9 -42 28 -75 28 -50 0 20 -24 92 -31 92 -4 0 -3 -19 3
-42z"/>
<path d="M7163 2653 c-23 -9 -14 -20 12 -15 14 2 25 8 25 13 0 10 -17 11 -37
2z"/>
<path d="M6858 2563 c6 -2 18 -2 25 0 6 3 1 5 -13 5 -14 0 -19 -2 -12 -5z"/>
<path d="M14245 2460 c3 -5 12 -7 20 -3 21 7 19 13 -6 13 -11 0 -18 -4 -14
-10z"/>
<path d="M9625 2371 c-3 -5 -1 -12 5 -16 5 -3 10 1 10 9 0 18 -6 21 -15 7z"/>
<path d="M14148 2173 c-27 -4 -37 -17 -20 -26 12 -7 72 13 72 23 0 10 -3 10
-52 3z"/>
<path d="M13992 2088 c-24 -15 -30 -24 -22 -32 8 -8 23 -4 55 13 25 13 45 28
45 32 0 16 -45 9 -78 -13z"/>
<path d="M10027 1666 c-7 -19 18 -42 28 -26 8 13 -1 40 -14 40 -5 0 -11 -6
-14 -14z"/>
<path d="M9794 1476 c-15 -12 -16 -16 -5 -30 16 -19 27 -14 34 14 7 26 -5 33
-29 16z"/>
</g>
</svg>
